<svg width="90" height="90" viewBox="0 0 90 90" fill="none" xmlns="http://www.w3.org/2000/svg">
<path d="M81.5625 59.0625H78.75V25.3125C78.75 23.0747 77.8611 20.9286 76.2787 19.3463C74.6964 17.7639 72.5503 16.875 70.3125 16.875H19.6875C17.4497 16.875 15.3036 17.7639 13.7213 19.3463C12.1389 20.9286 11.25 23.0747 11.25 25.3125V59.0625H8.4375C7.69158 59.0625 6.97621 59.3588 6.44876 59.8863C5.92132 60.4137 5.625 61.1291 5.625 61.875V67.5C5.625 69.7378 6.51395 71.8839 8.09629 73.4662C9.67863 75.0486 11.8247 75.9375 14.0625 75.9375H75.9375C78.1753 75.9375 80.3214 75.0486 81.9037 73.4662C83.4861 71.8839 84.375 69.7378 84.375 67.5V61.875C84.375 61.1291 84.0787 60.4137 83.5512 59.8863C83.0238 59.3588 82.3084 59.0625 81.5625 59.0625ZM39.375 25.3125H50.625C51.3709 25.3125 52.0863 25.6088 52.6137 26.1363C53.1412 26.6637 53.4375 27.3791 53.4375 28.125C53.4375 28.8709 53.1412 29.5863 52.6137 30.1137C52.0863 30.6412 51.3709 30.9375 50.625 30.9375H39.375C38.6291 30.9375 37.9137 30.6412 37.3863 30.1137C36.8588 29.5863 36.5625 28.8709 36.5625 28.125C36.5625 27.3791 36.8588 26.6637 37.3863 26.1363C37.9137 25.6088 38.6291 25.3125 39.375 25.3125ZM78.75 67.5C78.75 68.2459 78.4537 68.9613 77.9262 69.4887C77.3988 70.0162 76.6834 70.3125 75.9375 70.3125H14.0625C13.3166 70.3125 12.6012 70.0162 12.0738 69.4887C11.5463 68.9613 11.25 68.2459 11.25 67.5V64.6875H78.75V67.5Z" fill="#E9E9E9"/>
</svg>
