<svg width="80" height="60" viewBox="0 0 80 60" fill="none" xmlns="http://www.w3.org/2000/svg">
<path d="M76.5625 43.0625H73.75V9.3125C73.75 7.07474 72.8611 4.92863 71.2787 3.34629C69.6964 1.76395 67.5503 0.875 65.3125 0.875H14.6875C12.4497 0.875 10.3036 1.76395 8.72129 3.34629C7.13895 4.92863 6.25 7.07474 6.25 9.3125V43.0625H3.4375C2.69158 43.0625 1.97621 43.3588 1.44876 43.8863C0.921316 44.4137 0.625 45.1291 0.625 45.875V51.5C0.625 53.7378 1.51395 55.8839 3.09629 57.4662C4.67863 59.0486 6.82474 59.9375 9.0625 59.9375H70.9375C73.1753 59.9375 75.3214 59.0486 76.9037 57.4662C78.4861 55.8839 79.375 53.7378 79.375 51.5V45.875C79.375 45.1291 79.0787 44.4137 78.5512 43.8863C78.0238 43.3588 77.3084 43.0625 76.5625 43.0625ZM34.375 9.3125H45.625C46.3709 9.3125 47.0863 9.60882 47.6137 10.1363C48.1412 10.6637 48.4375 11.3791 48.4375 12.125C48.4375 12.8709 48.1412 13.5863 47.6137 14.1137C47.0863 14.6412 46.3709 14.9375 45.625 14.9375H34.375C33.6291 14.9375 32.9137 14.6412 32.3863 14.1137C31.8588 13.5863 31.5625 12.8709 31.5625 12.125C31.5625 11.3791 31.8588 10.6637 32.3863 10.1363C32.9137 9.60882 33.6291 9.3125 34.375 9.3125ZM73.75 51.5C73.75 52.2459 73.4537 52.9613 72.9262 53.4887C72.3988 54.0162 71.6834 54.3125 70.9375 54.3125H9.0625C8.31658 54.3125 7.60121 54.0162 7.07376 53.4887C6.54632 52.9613 6.25 52.2459 6.25 51.5V48.6875H73.75V51.5Z" fill="#E9E9E9"/>
</svg>
