<svg width="47" height="45" viewBox="0 0 47 45" fill="none" xmlns="http://www.w3.org/2000/svg">
<path d="M12.6201 20.117C12.3532 19.8591 12.1714 19.5304 12.0977 19.1726C12.024 18.8148 12.0618 18.4438 12.2062 18.1067C12.3506 17.7696 12.5952 17.4816 12.9089 17.279C13.2227 17.0764 13.5915 16.9685 13.9688 16.9688H21.5938V2.21875C21.5938 1.72976 21.7946 1.26079 22.1521 0.915022C22.5096 0.569252 22.9944 0.375 23.5 0.375C24.0056 0.375 24.4904 0.569252 24.8479 0.915022C25.2054 1.26079 25.4062 1.72976 25.4062 2.21875V16.9688H33.0312C33.4085 16.9685 33.7773 17.0764 34.0911 17.279C34.4049 17.4816 34.6494 17.7696 34.7938 18.1067C34.9382 18.4438 34.976 18.8148 34.9023 19.1726C34.8286 19.5304 34.6468 19.8591 34.3799 20.117L24.8487 29.3357C24.6716 29.5071 24.4614 29.6431 24.23 29.7359C23.9986 29.8287 23.7505 29.8764 23.5 29.8764C23.2495 29.8764 23.0014 29.8287 22.77 29.7359C22.5386 29.6431 22.3284 29.5071 22.1513 29.3357L12.6201 20.117ZM44.4688 26.1875C43.9632 26.1875 43.4783 26.3818 43.1208 26.7275C42.7633 27.0733 42.5625 27.5423 42.5625 28.0312V40.9375H4.4375V28.0312C4.4375 27.5423 4.23666 27.0733 3.87917 26.7275C3.52168 26.3818 3.03682 26.1875 2.53125 26.1875C2.02568 26.1875 1.54082 26.3818 1.18333 26.7275C0.825837 27.0733 0.625 27.5423 0.625 28.0312V40.9375C0.625 41.9155 1.02667 42.8534 1.74166 43.545C2.45664 44.2365 3.42636 44.625 4.4375 44.625H42.5625C43.5736 44.625 44.5434 44.2365 45.2583 43.545C45.9733 42.8534 46.375 41.9155 46.375 40.9375V28.0312C46.375 27.5423 46.1742 27.0733 45.8167 26.7275C45.4592 26.3818 44.9743 26.1875 44.4688 26.1875Z" fill="white"/>
</svg>
