<svg width="479" height="335" viewBox="0 0 479 335" fill="none" xmlns="http://www.w3.org/2000/svg">
<mask id="mask0_1_3811" style="mask-type:luminance" maskUnits="userSpaceOnUse" x="0" y="0" width="479" height="335">
<path d="M479 0H0V335H479V0Z" fill="url(#paint0_radial_1_3811)"/>
</mask>
<g mask="url(#mask0_1_3811)">
<path d="M23.95 0H0V23.9286H23.95V0Z" stroke="#38353D" stroke-width="2"/>
<path d="M47.9 0H23.95V23.9286H47.9V0Z" stroke="#38353D" stroke-width="2"/>
<path d="M71.85 0H47.9V23.9286H71.85V0Z" stroke="#38353D" stroke-width="2"/>
<path d="M95.8 0H71.85V23.9286H95.8V0Z" stroke="#38353D" stroke-width="2"/>
<path d="M119.75 0H95.8V23.9286H119.75V0Z" stroke="#38353D" stroke-width="2"/>
<path d="M143.7 0H119.75V23.9286H143.7V0Z" stroke="#38353D" stroke-width="2"/>
<path d="M167.65 0H143.7V23.9286H167.65V0Z" stroke="#38353D" stroke-width="2"/>
<path d="M191.6 0H167.65V23.9286H191.6V0Z" stroke="#38353D" stroke-width="2"/>
<path d="M215.55 0H191.6V23.9286H215.55V0Z" stroke="#38353D" stroke-width="2"/>
<path d="M239.5 0H215.55V23.9286H239.5V0Z" stroke="#38353D" stroke-width="2"/>
<path d="M263.45 0H239.5V23.9286H263.45V0Z" stroke="#38353D" stroke-width="2"/>
<path d="M287.4 0H263.45V23.9286H287.4V0Z" stroke="#38353D" stroke-width="2"/>
<path d="M311.35 0H287.4V23.9286H311.35V0Z" stroke="#38353D" stroke-width="2"/>
<path d="M335.3 0H311.35V23.9286H335.3V0Z" stroke="#38353D" stroke-width="2"/>
<path d="M359.25 0H335.3V23.9286H359.25V0Z" stroke="#38353D" stroke-width="2"/>
<path d="M383.2 0H359.25V23.9286H383.2V0Z" stroke="#38353D" stroke-width="2"/>
<path d="M407.15 0H383.2V23.9286H407.15V0Z" stroke="#38353D" stroke-width="2"/>
<path d="M431.1 0H407.15V23.9286H431.1V0Z" stroke="#38353D" stroke-width="2"/>
<path d="M455.05 0H431.1V23.9286H455.05V0Z" stroke="#38353D" stroke-width="2"/>
<path d="M479 0H455.05V23.9286H479V0Z" stroke="#38353D" stroke-width="2"/>
<path d="M23.95 23.9277H0V47.8563H23.95V23.9277Z" stroke="#38353D" stroke-width="2"/>
<path d="M47.9 23.9277H23.95V47.8563H47.9V23.9277Z" stroke="#38353D" stroke-width="2"/>
<path d="M71.85 23.9277H47.9V47.8563H71.85V23.9277Z" stroke="#38353D" stroke-width="2"/>
<path d="M95.8 23.9277H71.85V47.8563H95.8V23.9277Z" stroke="#38353D" stroke-width="2"/>
<path d="M119.75 23.9277H95.8V47.8563H119.75V23.9277Z" stroke="#38353D" stroke-width="2"/>
<path d="M143.7 23.9277H119.75V47.8563H143.7V23.9277Z" stroke="#38353D" stroke-width="2"/>
<path d="M167.65 23.9277H143.7V47.8563H167.65V23.9277Z" stroke="#38353D" stroke-width="2"/>
<path d="M191.6 23.9277H167.65V47.8563H191.6V23.9277Z" stroke="#38353D" stroke-width="2"/>
<path d="M215.55 23.9277H191.6V47.8563H215.55V23.9277Z" stroke="#38353D" stroke-width="2"/>
<path d="M239.5 23.9277H215.55V47.8563H239.5V23.9277Z" stroke="#38353D" stroke-width="2"/>
<path d="M263.45 23.9277H239.5V47.8563H263.45V23.9277Z" stroke="#38353D" stroke-width="2"/>
<path d="M287.4 23.9277H263.45V47.8563H287.4V23.9277Z" stroke="#38353D" stroke-width="2"/>
<path d="M311.35 23.9277H287.4V47.8563H311.35V23.9277Z" stroke="#38353D" stroke-width="2"/>
<path d="M335.3 23.9277H311.35V47.8563H335.3V23.9277Z" stroke="#38353D" stroke-width="2"/>
<path d="M359.25 23.9277H335.3V47.8563H359.25V23.9277Z" stroke="#38353D" stroke-width="2"/>
<path d="M383.2 23.9277H359.25V47.8563H383.2V23.9277Z" stroke="#38353D" stroke-width="2"/>
<path d="M407.15 23.9277H383.2V47.8563H407.15V23.9277Z" stroke="#38353D" stroke-width="2"/>
<path d="M431.1 23.9277H407.15V47.8563H431.1V23.9277Z" stroke="#38353D" stroke-width="2"/>
<path d="M455.05 23.9277H431.1V47.8563H455.05V23.9277Z" stroke="#38353D" stroke-width="2"/>
<path d="M479 23.9277H455.05V47.8563H479V23.9277Z" stroke="#38353D" stroke-width="2"/>
<path d="M23.95 47.8574H0V71.786H23.95V47.8574Z" stroke="#38353D" stroke-width="2"/>
<path d="M47.9 47.8574H23.95V71.786H47.9V47.8574Z" stroke="#38353D" stroke-width="2"/>
<path d="M71.85 47.8574H47.9V71.786H71.85V47.8574Z" stroke="#38353D" stroke-width="2"/>
<path d="M95.8 47.8574H71.85V71.786H95.8V47.8574Z" stroke="#38353D" stroke-width="2"/>
<path d="M119.75 47.8574H95.8V71.786H119.75V47.8574Z" stroke="#38353D" stroke-width="2"/>
<path d="M143.7 47.8574H119.75V71.786H143.7V47.8574Z" stroke="#38353D" stroke-width="2"/>
<path d="M167.65 47.8574H143.7V71.786H167.65V47.8574Z" stroke="#38353D" stroke-width="2"/>
<path d="M191.6 47.8574H167.65V71.786H191.6V47.8574Z" stroke="#38353D" stroke-width="2"/>
<path d="M215.55 47.8574H191.6V71.786H215.55V47.8574Z" stroke="#38353D" stroke-width="2"/>
<path d="M239.5 47.8574H215.55V71.786H239.5V47.8574Z" stroke="#38353D" stroke-width="2"/>
<path d="M263.45 47.8574H239.5V71.786H263.45V47.8574Z" stroke="#38353D" stroke-width="2"/>
<path d="M287.4 47.8574H263.45V71.786H287.4V47.8574Z" stroke="#38353D" stroke-width="2"/>
<path d="M311.35 47.8574H287.4V71.786H311.35V47.8574Z" stroke="#38353D" stroke-width="2"/>
<path d="M335.3 47.8574H311.35V71.786H335.3V47.8574Z" stroke="#38353D" stroke-width="2"/>
<path d="M359.25 47.8574H335.3V71.786H359.25V47.8574Z" stroke="#38353D" stroke-width="2"/>
<path d="M383.2 47.8574H359.25V71.786H383.2V47.8574Z" stroke="#38353D" stroke-width="2"/>
<path d="M407.15 47.8574H383.2V71.786H407.15V47.8574Z" stroke="#38353D" stroke-width="2"/>
<path d="M431.1 47.8574H407.15V71.786H431.1V47.8574Z" stroke="#38353D" stroke-width="2"/>
<path d="M455.05 47.8574H431.1V71.786H455.05V47.8574Z" stroke="#38353D" stroke-width="2"/>
<path d="M479 47.8574H455.05V71.786H479V47.8574Z" stroke="#38353D" stroke-width="2"/>
<path d="M23.95 71.7852H0V95.7137H23.95V71.7852Z" stroke="#38353D" stroke-width="2"/>
<path d="M47.9 71.7852H23.95V95.7137H47.9V71.7852Z" stroke="#38353D" stroke-width="2"/>
<path d="M71.85 71.7852H47.9V95.7137H71.85V71.7852Z" stroke="#38353D" stroke-width="2"/>
<path d="M95.8 71.7852H71.85V95.7137H95.8V71.7852Z" stroke="#38353D" stroke-width="2"/>
<path d="M119.75 71.7852H95.8V95.7137H119.75V71.7852Z" stroke="#38353D" stroke-width="2"/>
<path d="M143.7 71.7852H119.75V95.7137H143.7V71.7852Z" stroke="#38353D" stroke-width="2"/>
<path d="M167.65 71.7852H143.7V95.7137H167.65V71.7852Z" stroke="#38353D" stroke-width="2"/>
<path d="M191.6 71.7852H167.65V95.7137H191.6V71.7852Z" stroke="#38353D" stroke-width="2"/>
<path d="M215.55 71.7852H191.6V95.7137H215.55V71.7852Z" stroke="#38353D" stroke-width="2"/>
<path d="M239.5 71.7852H215.55V95.7137H239.5V71.7852Z" stroke="#38353D" stroke-width="2"/>
<path d="M263.45 71.7852H239.5V95.7137H263.45V71.7852Z" stroke="#38353D" stroke-width="2"/>
<path d="M287.4 71.7852H263.45V95.7137H287.4V71.7852Z" stroke="#38353D" stroke-width="2"/>
<path d="M311.35 71.7852H287.4V95.7137H311.35V71.7852Z" stroke="#38353D" stroke-width="2"/>
<path d="M335.3 71.7852H311.35V95.7137H335.3V71.7852Z" stroke="#38353D" stroke-width="2"/>
<path d="M359.25 71.7852H335.3V95.7137H359.25V71.7852Z" stroke="#38353D" stroke-width="2"/>
<path d="M383.2 71.7852H359.25V95.7137H383.2V71.7852Z" stroke="#38353D" stroke-width="2"/>
<path d="M407.15 71.7852H383.2V95.7137H407.15V71.7852Z" stroke="#38353D" stroke-width="2"/>
<path d="M431.1 71.7852H407.15V95.7137H431.1V71.7852Z" stroke="#38353D" stroke-width="2"/>
<path d="M455.05 71.7852H431.1V95.7137H455.05V71.7852Z" stroke="#38353D" stroke-width="2"/>
<path d="M479 71.7852H455.05V95.7137H479V71.7852Z" stroke="#38353D" stroke-width="2"/>
<path d="M23.95 95.7148H0V119.643H23.95V95.7148Z" stroke="#38353D" stroke-width="2"/>
<path d="M47.9 95.7148H23.95V119.643H47.9V95.7148Z" stroke="#38353D" stroke-width="2"/>
<path d="M71.85 95.7148H47.9V119.643H71.85V95.7148Z" stroke="#38353D" stroke-width="2"/>
<path d="M95.8 95.7148H71.85V119.643H95.8V95.7148Z" stroke="#38353D" stroke-width="2"/>
<path d="M119.75 95.7148H95.8V119.643H119.75V95.7148Z" stroke="#38353D" stroke-width="2"/>
<path d="M143.7 95.7148H119.75V119.643H143.7V95.7148Z" stroke="#38353D" stroke-width="2"/>
<path d="M167.65 95.7148H143.7V119.643H167.65V95.7148Z" stroke="#38353D" stroke-width="2"/>
<path d="M191.6 95.7148H167.65V119.643H191.6V95.7148Z" stroke="#38353D" stroke-width="2"/>
<path d="M215.55 95.7148H191.6V119.643H215.55V95.7148Z" stroke="#38353D" stroke-width="2"/>
<path d="M239.5 95.7148H215.55V119.643H239.5V95.7148Z" stroke="#38353D" stroke-width="2"/>
<path d="M263.45 95.7148H239.5V119.643H263.45V95.7148Z" stroke="#38353D" stroke-width="2"/>
<path d="M287.4 95.7148H263.45V119.643H287.4V95.7148Z" stroke="#38353D" stroke-width="2"/>
<path d="M311.35 95.7148H287.4V119.643H311.35V95.7148Z" stroke="#38353D" stroke-width="2"/>
<path d="M335.3 95.7148H311.35V119.643H335.3V95.7148Z" stroke="#38353D" stroke-width="2"/>
<path d="M359.25 95.7148H335.3V119.643H359.25V95.7148Z" stroke="#38353D" stroke-width="2"/>
<path d="M383.2 95.7148H359.25V119.643H383.2V95.7148Z" stroke="#38353D" stroke-width="2"/>
<path d="M407.15 95.7148H383.2V119.643H407.15V95.7148Z" stroke="#38353D" stroke-width="2"/>
<path d="M431.1 95.7148H407.15V119.643H431.1V95.7148Z" stroke="#38353D" stroke-width="2"/>
<path d="M455.05 95.7148H431.1V119.643H455.05V95.7148Z" stroke="#38353D" stroke-width="2"/>
<path d="M479 95.7148H455.05V119.643H479V95.7148Z" stroke="#38353D" stroke-width="2"/>
<path d="M23.95 119.643H0V143.571H23.95V119.643Z" stroke="#38353D" stroke-width="2"/>
<path d="M47.9 119.643H23.95V143.571H47.9V119.643Z" stroke="#38353D" stroke-width="2"/>
<path d="M71.85 119.643H47.9V143.571H71.85V119.643Z" stroke="#38353D" stroke-width="2"/>
<path d="M95.8 119.643H71.85V143.571H95.8V119.643Z" stroke="#38353D" stroke-width="2"/>
<path d="M119.75 119.643H95.8V143.571H119.75V119.643Z" stroke="#38353D" stroke-width="2"/>
<path d="M143.7 119.643H119.75V143.571H143.7V119.643Z" stroke="#38353D" stroke-width="2"/>
<path d="M167.65 119.643H143.7V143.571H167.65V119.643Z" stroke="#38353D" stroke-width="2"/>
<path d="M191.6 119.643H167.65V143.571H191.6V119.643Z" stroke="#38353D" stroke-width="2"/>
<path d="M215.55 119.643H191.6V143.571H215.55V119.643Z" stroke="#38353D" stroke-width="2"/>
<path d="M239.5 119.643H215.55V143.571H239.5V119.643Z" stroke="#38353D" stroke-width="2"/>
<path d="M263.45 119.643H239.5V143.571H263.45V119.643Z" stroke="#38353D" stroke-width="2"/>
<path d="M287.4 119.643H263.45V143.571H287.4V119.643Z" stroke="#38353D" stroke-width="2"/>
<path d="M311.35 119.643H287.4V143.571H311.35V119.643Z" stroke="#38353D" stroke-width="2"/>
<path d="M335.3 119.643H311.35V143.571H335.3V119.643Z" stroke="#38353D" stroke-width="2"/>
<path d="M359.25 119.643H335.3V143.571H359.25V119.643Z" stroke="#38353D" stroke-width="2"/>
<path d="M383.2 119.643H359.25V143.571H383.2V119.643Z" stroke="#38353D" stroke-width="2"/>
<path d="M407.15 119.643H383.2V143.571H407.15V119.643Z" stroke="#38353D" stroke-width="2"/>
<path d="M431.1 119.643H407.15V143.571H431.1V119.643Z" stroke="#38353D" stroke-width="2"/>
<path d="M455.05 119.643H431.1V143.571H455.05V119.643Z" stroke="#38353D" stroke-width="2"/>
<path d="M479 119.643H455.05V143.571H479V119.643Z" stroke="#38353D" stroke-width="2"/>
<path d="M23.95 143.572H0V167.501H23.95V143.572Z" stroke="#38353D" stroke-width="2"/>
<path d="M47.9 143.572H23.95V167.501H47.9V143.572Z" stroke="#38353D" stroke-width="2"/>
<path d="M71.85 143.572H47.9V167.501H71.85V143.572Z" stroke="#38353D" stroke-width="2"/>
<path d="M95.8 143.572H71.85V167.501H95.8V143.572Z" stroke="#38353D" stroke-width="2"/>
<path d="M119.75 143.572H95.8V167.501H119.75V143.572Z" stroke="#38353D" stroke-width="2"/>
<path d="M143.7 143.572H119.75V167.501H143.7V143.572Z" stroke="#38353D" stroke-width="2"/>
<path d="M167.65 143.572H143.7V167.501H167.65V143.572Z" stroke="#38353D" stroke-width="2"/>
<path d="M191.6 143.572H167.65V167.501H191.6V143.572Z" stroke="#38353D" stroke-width="2"/>
<path d="M215.55 143.572H191.6V167.501H215.55V143.572Z" stroke="#38353D" stroke-width="2"/>
<path d="M239.5 143.572H215.55V167.501H239.5V143.572Z" stroke="#38353D" stroke-width="2"/>
<path d="M263.45 143.572H239.5V167.501H263.45V143.572Z" stroke="#38353D" stroke-width="2"/>
<path d="M287.4 143.572H263.45V167.501H287.4V143.572Z" stroke="#38353D" stroke-width="2"/>
<path d="M311.35 143.572H287.4V167.501H311.35V143.572Z" stroke="#38353D" stroke-width="2"/>
<path d="M335.3 143.572H311.35V167.501H335.3V143.572Z" stroke="#38353D" stroke-width="2"/>
<path d="M359.25 143.572H335.3V167.501H359.25V143.572Z" stroke="#38353D" stroke-width="2"/>
<path d="M383.2 143.572H359.25V167.501H383.2V143.572Z" stroke="#38353D" stroke-width="2"/>
<path d="M407.15 143.572H383.2V167.501H407.15V143.572Z" stroke="#38353D" stroke-width="2"/>
<path d="M431.1 143.572H407.15V167.501H431.1V143.572Z" stroke="#38353D" stroke-width="2"/>
<path d="M455.05 143.572H431.1V167.501H455.05V143.572Z" stroke="#38353D" stroke-width="2"/>
<path d="M479 143.572H455.05V167.501H479V143.572Z" stroke="#38353D" stroke-width="2"/>
<path d="M23.95 167.5H0V191.429H23.95V167.5Z" stroke="#38353D" stroke-width="2"/>
<path d="M47.9 167.5H23.95V191.429H47.9V167.5Z" stroke="#38353D" stroke-width="2"/>
<path d="M71.85 167.5H47.9V191.429H71.85V167.5Z" stroke="#38353D" stroke-width="2"/>
<path d="M95.8 167.5H71.85V191.429H95.8V167.5Z" stroke="#38353D" stroke-width="2"/>
<path d="M119.75 167.5H95.8V191.429H119.75V167.5Z" stroke="#38353D" stroke-width="2"/>
<path d="M143.7 167.5H119.75V191.429H143.7V167.5Z" stroke="#38353D" stroke-width="2"/>
<path d="M167.65 167.5H143.7V191.429H167.65V167.5Z" stroke="#38353D" stroke-width="2"/>
<path d="M191.6 167.5H167.65V191.429H191.6V167.5Z" stroke="#38353D" stroke-width="2"/>
<path d="M215.55 167.5H191.6V191.429H215.55V167.5Z" stroke="#38353D" stroke-width="2"/>
<path d="M239.5 167.5H215.55V191.429H239.5V167.5Z" stroke="#38353D" stroke-width="2"/>
<path d="M263.45 167.5H239.5V191.429H263.45V167.5Z" stroke="#38353D" stroke-width="2"/>
<path d="M287.4 167.5H263.45V191.429H287.4V167.5Z" stroke="#38353D" stroke-width="2"/>
<path d="M311.35 167.5H287.4V191.429H311.35V167.5Z" stroke="#38353D" stroke-width="2"/>
<path d="M335.3 167.5H311.35V191.429H335.3V167.5Z" stroke="#38353D" stroke-width="2"/>
<path d="M359.25 167.5H335.3V191.429H359.25V167.5Z" stroke="#38353D" stroke-width="2"/>
<path d="M383.2 167.5H359.25V191.429H383.2V167.5Z" stroke="#38353D" stroke-width="2"/>
<path d="M407.15 167.5H383.2V191.429H407.15V167.5Z" stroke="#38353D" stroke-width="2"/>
<path d="M431.1 167.5H407.15V191.429H431.1V167.5Z" stroke="#38353D" stroke-width="2"/>
<path d="M455.05 167.5H431.1V191.429H455.05V167.5Z" stroke="#38353D" stroke-width="2"/>
<path d="M479 167.5H455.05V191.429H479V167.5Z" stroke="#38353D" stroke-width="2"/>
<path d="M23.95 191.428H0V215.356H23.95V191.428Z" stroke="#38353D" stroke-width="2"/>
<path d="M47.9 191.428H23.95V215.356H47.9V191.428Z" stroke="#38353D" stroke-width="2"/>
<path d="M71.85 191.428H47.9V215.356H71.85V191.428Z" stroke="#38353D" stroke-width="2"/>
<path d="M95.8 191.428H71.85V215.356H95.8V191.428Z" stroke="#38353D" stroke-width="2"/>
<path d="M119.75 191.428H95.8V215.356H119.75V191.428Z" stroke="#38353D" stroke-width="2"/>
<path d="M143.7 191.428H119.75V215.356H143.7V191.428Z" stroke="#38353D" stroke-width="2"/>
<path d="M167.65 191.428H143.7V215.356H167.65V191.428Z" stroke="#38353D" stroke-width="2"/>
<path d="M191.6 191.428H167.65V215.356H191.6V191.428Z" stroke="#38353D" stroke-width="2"/>
<path d="M215.55 191.428H191.6V215.356H215.55V191.428Z" stroke="#38353D" stroke-width="2"/>
<path d="M239.5 191.428H215.55V215.356H239.5V191.428Z" stroke="#38353D" stroke-width="2"/>
<path d="M263.45 191.428H239.5V215.356H263.45V191.428Z" stroke="#38353D" stroke-width="2"/>
<path d="M287.4 191.428H263.45V215.356H287.4V191.428Z" stroke="#38353D" stroke-width="2"/>
<path d="M311.35 191.428H287.4V215.356H311.35V191.428Z" stroke="#38353D" stroke-width="2"/>
<path d="M335.3 191.428H311.35V215.356H335.3V191.428Z" stroke="#38353D" stroke-width="2"/>
<path d="M359.25 191.428H335.3V215.356H359.25V191.428Z" stroke="#38353D" stroke-width="2"/>
<path d="M383.2 191.428H359.25V215.356H383.2V191.428Z" stroke="#38353D" stroke-width="2"/>
<path d="M407.15 191.428H383.2V215.356H407.15V191.428Z" stroke="#38353D" stroke-width="2"/>
<path d="M431.1 191.428H407.15V215.356H431.1V191.428Z" stroke="#38353D" stroke-width="2"/>
<path d="M455.05 191.428H431.1V215.356H455.05V191.428Z" stroke="#38353D" stroke-width="2"/>
<path d="M479 191.428H455.05V215.356H479V191.428Z" stroke="#38353D" stroke-width="2"/>
<path d="M23.95 215.357H0V239.286H23.95V215.357Z" stroke="#38353D" stroke-width="2"/>
<path d="M47.9 215.357H23.95V239.286H47.9V215.357Z" stroke="#38353D" stroke-width="2"/>
<path d="M71.85 215.357H47.9V239.286H71.85V215.357Z" stroke="#38353D" stroke-width="2"/>
<path d="M95.8 215.357H71.85V239.286H95.8V215.357Z" stroke="#38353D" stroke-width="2"/>
<path d="M119.75 215.357H95.8V239.286H119.75V215.357Z" stroke="#38353D" stroke-width="2"/>
<path d="M143.7 215.357H119.75V239.286H143.7V215.357Z" stroke="#38353D" stroke-width="2"/>
<path d="M167.65 215.357H143.7V239.286H167.65V215.357Z" stroke="#38353D" stroke-width="2"/>
<path d="M191.6 215.357H167.65V239.286H191.6V215.357Z" stroke="#38353D" stroke-width="2"/>
<path d="M215.55 215.357H191.6V239.286H215.55V215.357Z" stroke="#38353D" stroke-width="2"/>
<path d="M239.5 215.357H215.55V239.286H239.5V215.357Z" stroke="#38353D" stroke-width="2"/>
<path d="M263.45 215.357H239.5V239.286H263.45V215.357Z" stroke="#38353D" stroke-width="2"/>
<path d="M287.4 215.357H263.45V239.286H287.4V215.357Z" stroke="#38353D" stroke-width="2"/>
<path d="M311.35 215.357H287.4V239.286H311.35V215.357Z" stroke="#38353D" stroke-width="2"/>
<path d="M335.3 215.357H311.35V239.286H335.3V215.357Z" stroke="#38353D" stroke-width="2"/>
<path d="M359.25 215.357H335.3V239.286H359.25V215.357Z" stroke="#38353D" stroke-width="2"/>
<path d="M383.2 215.357H359.25V239.286H383.2V215.357Z" stroke="#38353D" stroke-width="2"/>
<path d="M407.15 215.357H383.2V239.286H407.15V215.357Z" stroke="#38353D" stroke-width="2"/>
<path d="M431.1 215.357H407.15V239.286H431.1V215.357Z" stroke="#38353D" stroke-width="2"/>
<path d="M455.05 215.357H431.1V239.286H455.05V215.357Z" stroke="#38353D" stroke-width="2"/>
<path d="M479 215.357H455.05V239.286H479V215.357Z" stroke="#38353D" stroke-width="2"/>
<path d="M23.95 239.285H0V263.214H23.95V239.285Z" stroke="#38353D" stroke-width="2"/>
<path d="M47.9 239.285H23.95V263.214H47.9V239.285Z" stroke="#38353D" stroke-width="2"/>
<path d="M71.85 239.285H47.9V263.214H71.85V239.285Z" stroke="#38353D" stroke-width="2"/>
<path d="M95.8 239.285H71.85V263.214H95.8V239.285Z" stroke="#38353D" stroke-width="2"/>
<path d="M119.75 239.285H95.8V263.214H119.75V239.285Z" stroke="#38353D" stroke-width="2"/>
<path d="M143.7 239.285H119.75V263.214H143.7V239.285Z" stroke="#38353D" stroke-width="2"/>
<path d="M167.65 239.285H143.7V263.214H167.65V239.285Z" stroke="#38353D" stroke-width="2"/>
<path d="M191.6 239.285H167.65V263.214H191.6V239.285Z" stroke="#38353D" stroke-width="2"/>
<path d="M215.55 239.285H191.6V263.214H215.55V239.285Z" stroke="#38353D" stroke-width="2"/>
<path d="M239.5 239.285H215.55V263.214H239.5V239.285Z" stroke="#38353D" stroke-width="2"/>
<path d="M263.45 239.285H239.5V263.214H263.45V239.285Z" stroke="#38353D" stroke-width="2"/>
<path d="M287.4 239.285H263.45V263.214H287.4V239.285Z" stroke="#38353D" stroke-width="2"/>
<path d="M311.35 239.285H287.4V263.214H311.35V239.285Z" stroke="#38353D" stroke-width="2"/>
<path d="M335.3 239.285H311.35V263.214H335.3V239.285Z" stroke="#38353D" stroke-width="2"/>
<path d="M359.25 239.285H335.3V263.214H359.25V239.285Z" stroke="#38353D" stroke-width="2"/>
<path d="M383.2 239.285H359.25V263.214H383.2V239.285Z" stroke="#38353D" stroke-width="2"/>
<path d="M407.15 239.285H383.2V263.214H407.15V239.285Z" stroke="#38353D" stroke-width="2"/>
<path d="M431.1 239.285H407.15V263.214H431.1V239.285Z" stroke="#38353D" stroke-width="2"/>
<path d="M455.05 239.285H431.1V263.214H455.05V239.285Z" stroke="#38353D" stroke-width="2"/>
<path d="M479 239.285H455.05V263.214H479V239.285Z" stroke="#38353D" stroke-width="2"/>
<path d="M23.95 263.215H0V287.143H23.95V263.215Z" stroke="#38353D" stroke-width="2"/>
<path d="M47.9 263.215H23.95V287.143H47.9V263.215Z" stroke="#38353D" stroke-width="2"/>
<path d="M71.85 263.215H47.9V287.143H71.85V263.215Z" stroke="#38353D" stroke-width="2"/>
<path d="M95.8 263.215H71.85V287.143H95.8V263.215Z" stroke="#38353D" stroke-width="2"/>
<path d="M119.75 263.215H95.8V287.143H119.75V263.215Z" stroke="#38353D" stroke-width="2"/>
<path d="M143.7 263.215H119.75V287.143H143.7V263.215Z" stroke="#38353D" stroke-width="2"/>
<path d="M167.65 263.215H143.7V287.143H167.65V263.215Z" stroke="#38353D" stroke-width="2"/>
<path d="M191.6 263.215H167.65V287.143H191.6V263.215Z" stroke="#38353D" stroke-width="2"/>
<path d="M215.55 263.215H191.6V287.143H215.55V263.215Z" stroke="#38353D" stroke-width="2"/>
<path d="M239.5 263.215H215.55V287.143H239.5V263.215Z" stroke="#38353D" stroke-width="2"/>
<path d="M263.45 263.215H239.5V287.143H263.45V263.215Z" stroke="#38353D" stroke-width="2"/>
<path d="M287.4 263.215H263.45V287.143H287.4V263.215Z" stroke="#38353D" stroke-width="2"/>
<path d="M311.35 263.215H287.4V287.143H311.35V263.215Z" stroke="#38353D" stroke-width="2"/>
<path d="M335.3 263.215H311.35V287.143H335.3V263.215Z" stroke="#38353D" stroke-width="2"/>
<path d="M359.25 263.215H335.3V287.143H359.25V263.215Z" stroke="#38353D" stroke-width="2"/>
<path d="M383.2 263.215H359.25V287.143H383.2V263.215Z" stroke="#38353D" stroke-width="2"/>
<path d="M407.15 263.215H383.2V287.143H407.15V263.215Z" stroke="#38353D" stroke-width="2"/>
<path d="M431.1 263.215H407.15V287.143H431.1V263.215Z" stroke="#38353D" stroke-width="2"/>
<path d="M455.05 263.215H431.1V287.143H455.05V263.215Z" stroke="#38353D" stroke-width="2"/>
<path d="M479 263.215H455.05V287.143H479V263.215Z" stroke="#38353D" stroke-width="2"/>
<path d="M23.95 287.143H0V311.071H23.95V287.143Z" stroke="#38353D" stroke-width="2"/>
<path d="M47.9 287.143H23.95V311.071H47.9V287.143Z" stroke="#38353D" stroke-width="2"/>
<path d="M71.85 287.143H47.9V311.071H71.85V287.143Z" stroke="#38353D" stroke-width="2"/>
<path d="M95.8 287.143H71.85V311.071H95.8V287.143Z" stroke="#38353D" stroke-width="2"/>
<path d="M119.75 287.143H95.8V311.071H119.75V287.143Z" stroke="#38353D" stroke-width="2"/>
<path d="M143.7 287.143H119.75V311.071H143.7V287.143Z" stroke="#38353D" stroke-width="2"/>
<path d="M167.65 287.143H143.7V311.071H167.65V287.143Z" stroke="#38353D" stroke-width="2"/>
<path d="M191.6 287.143H167.65V311.071H191.6V287.143Z" stroke="#38353D" stroke-width="2"/>
<path d="M215.55 287.143H191.6V311.071H215.55V287.143Z" stroke="#38353D" stroke-width="2"/>
<path d="M239.5 287.143H215.55V311.071H239.5V287.143Z" stroke="#38353D" stroke-width="2"/>
<path d="M263.45 287.143H239.5V311.071H263.45V287.143Z" stroke="#38353D" stroke-width="2"/>
<path d="M287.4 287.143H263.45V311.071H287.4V287.143Z" stroke="#38353D" stroke-width="2"/>
<path d="M311.35 287.143H287.4V311.071H311.35V287.143Z" stroke="#38353D" stroke-width="2"/>
<path d="M335.3 287.143H311.35V311.071H335.3V287.143Z" stroke="#38353D" stroke-width="2"/>
<path d="M359.25 287.143H335.3V311.071H359.25V287.143Z" stroke="#38353D" stroke-width="2"/>
<path d="M383.2 287.143H359.25V311.071H383.2V287.143Z" stroke="#38353D" stroke-width="2"/>
<path d="M407.15 287.143H383.2V311.071H407.15V287.143Z" stroke="#38353D" stroke-width="2"/>
<path d="M431.1 287.143H407.15V311.071H431.1V287.143Z" stroke="#38353D" stroke-width="2"/>
<path d="M455.05 287.143H431.1V311.071H455.05V287.143Z" stroke="#38353D" stroke-width="2"/>
<path d="M479 287.143H455.05V311.071H479V287.143Z" stroke="#38353D" stroke-width="2"/>
<path d="M23.95 311.072H0V335.001H23.95V311.072Z" stroke="#38353D" stroke-width="2"/>
<path d="M47.9 311.072H23.95V335.001H47.9V311.072Z" stroke="#38353D" stroke-width="2"/>
<path d="M71.85 311.072H47.9V335.001H71.85V311.072Z" stroke="#38353D" stroke-width="2"/>
<path d="M95.8 311.072H71.85V335.001H95.8V311.072Z" stroke="#38353D" stroke-width="2"/>
<path d="M119.75 311.072H95.8V335.001H119.75V311.072Z" stroke="#38353D" stroke-width="2"/>
<path d="M143.7 311.072H119.75V335.001H143.7V311.072Z" stroke="#38353D" stroke-width="2"/>
<path d="M167.65 311.072H143.7V335.001H167.65V311.072Z" stroke="#38353D" stroke-width="2"/>
<path d="M191.6 311.072H167.65V335.001H191.6V311.072Z" stroke="#38353D" stroke-width="2"/>
<path d="M215.55 311.072H191.6V335.001H215.55V311.072Z" stroke="#38353D" stroke-width="2"/>
<path d="M239.5 311.072H215.55V335.001H239.5V311.072Z" stroke="#38353D" stroke-width="2"/>
<path d="M263.45 311.072H239.5V335.001H263.45V311.072Z" stroke="#38353D" stroke-width="2"/>
<path d="M287.4 311.072H263.45V335.001H287.4V311.072Z" stroke="#38353D" stroke-width="2"/>
<path d="M311.35 311.072H287.4V335.001H311.35V311.072Z" stroke="#38353D" stroke-width="2"/>
<path d="M335.3 311.072H311.35V335.001H335.3V311.072Z" stroke="#38353D" stroke-width="2"/>
<path d="M359.25 311.072H335.3V335.001H359.25V311.072Z" stroke="#38353D" stroke-width="2"/>
<path d="M383.2 311.072H359.25V335.001H383.2V311.072Z" stroke="#38353D" stroke-width="2"/>
<path d="M407.15 311.072H383.2V335.001H407.15V311.072Z" stroke="#38353D" stroke-width="2"/>
<path d="M431.1 311.072H407.15V335.001H431.1V311.072Z" stroke="#38353D" stroke-width="2"/>
<path d="M455.05 311.072H431.1V335.001H455.05V311.072Z" stroke="#38353D" stroke-width="2"/>
<path d="M479 311.072H455.05V335.001H479V311.072Z" stroke="#38353D" stroke-width="2"/>
</g>
<defs>
<radialGradient id="paint0_radial_1_3811" cx="0" cy="0" r="1" gradientUnits="userSpaceOnUse" gradientTransform="translate(239.5 167.5) scale(239.5 167.5)">
<stop offset="0.5" stop-color="white" stop-opacity="0"/>
<stop offset="1" stop-color="white" stop-opacity="0.5"/>
</radialGradient>
</defs>
</svg>
