<svg width="61" height="74" viewBox="0 0 61 74" fill="none" xmlns="http://www.w3.org/2000/svg">
<path d="M46.5169 71.125C46.5169 71.8212 46.2301 72.4889 45.7197 72.9811C45.2093 73.4734 44.517 73.75 43.7952 73.75H16.5785C15.8567 73.75 15.1644 73.4734 14.654 72.9811C14.1436 72.4889 13.8568 71.8212 13.8568 71.125C13.8568 70.4288 14.1436 69.7611 14.654 69.2688C15.1644 68.7766 15.8567 68.5 16.5785 68.5H43.7952C44.517 68.5 45.2093 68.7766 45.7197 69.2688C46.2301 69.7611 46.5169 70.4288 46.5169 71.125ZM60.1252 29.125C60.137 33.501 59.112 37.8218 57.1285 41.7575C55.1451 45.6932 52.2556 49.1399 48.6806 51.8345C48.0121 52.3287 47.4697 52.9638 47.0947 53.6911C46.7196 54.4185 46.522 55.2189 46.5169 56.0312V58C46.5169 59.3924 45.9434 60.7277 44.9226 61.7123C43.9017 62.6969 42.5172 63.25 41.0735 63.25H19.3002C17.8565 63.25 16.472 62.6969 15.4511 61.7123C14.4303 60.7277 13.8568 59.3924 13.8568 58V56.0312C13.8563 55.2286 13.6649 54.4368 13.2975 53.7167C12.9301 52.9966 12.3963 52.3673 11.7373 51.8772C8.17125 49.1985 5.28371 45.7725 3.29326 41.8586C1.30281 37.9446 0.261604 33.6452 0.248462 29.2858C0.160007 13.6473 13.2649 0.624051 29.4656 0.249989C33.4574 0.15721 37.4282 0.835538 41.1441 2.24505C44.8601 3.65456 48.2462 5.76676 51.103 8.45735C53.9599 11.1479 56.2299 14.3625 57.7793 17.9119C59.3288 21.4613 60.1264 25.2738 60.1252 29.125ZM49.2011 26.0603C48.4954 22.2583 46.5988 18.7561 43.7668 16.0252C40.9347 13.2944 37.3032 11.4659 33.361 10.7861C33.0085 10.7288 32.6477 10.739 32.2993 10.8161C31.9509 10.8933 31.6217 11.0359 31.3304 11.2358C31.0391 11.4356 30.7915 11.6889 30.6018 11.9811C30.412 12.2732 30.2837 12.5986 30.2243 12.9386C30.1649 13.2786 30.1754 13.6265 30.2554 13.9625C30.3354 14.2986 30.4833 14.6161 30.6905 14.897C30.8978 15.178 31.1603 15.4168 31.4633 15.5998C31.7662 15.7829 32.1035 15.9066 32.456 15.9639C38.0933 16.8794 42.8766 21.4928 43.8326 26.9397C43.9403 27.551 44.269 28.1059 44.7603 28.5059C45.2516 28.9059 45.8739 29.1252 46.5169 29.125C46.6707 29.1241 46.8242 29.112 46.9762 29.0889C47.6876 28.9718 48.3216 28.5869 48.7389 28.0189C49.1561 27.451 49.3224 26.7465 49.2011 26.0603Z" fill="white"/>
</svg>
