<svg width="88" height="75" viewBox="0 0 88 75" fill="none" xmlns="http://www.w3.org/2000/svg">
<path d="M60.1062 61.0006C61.9837 60.2872 63.8032 59.4393 65.5496 58.4642V71.75C65.5496 72.4462 65.2628 73.1139 64.7524 73.6061C64.242 74.0984 63.5497 74.375 62.8279 74.375C62.1061 74.375 61.4138 74.0984 60.9034 73.6061C60.393 73.1139 60.1062 72.4462 60.1062 71.75V61.0006ZM64.1071 31.9845L45.0554 22.1834C44.4198 21.8703 43.682 21.8105 43.0011 22.017C42.3202 22.2234 41.7507 22.6796 41.4152 23.2872C41.0796 23.8948 41.005 24.6052 41.2074 25.2654C41.4097 25.9255 41.8729 26.4826 42.497 26.8165L58.4052 35L64.1887 32.0272L64.1071 31.9845ZM85.8805 22.1834L45.0554 1.18343C44.6616 0.981198 44.2223 0.875427 43.7762 0.875427C43.3301 0.875427 42.8908 0.981198 42.497 1.18343L1.67197 22.1834C1.23651 22.4072 0.872342 22.741 0.618408 23.1491C0.364473 23.5571 0.230331 24.0241 0.230331 24.5C0.230331 24.9759 0.364473 25.4428 0.618408 25.8509C0.872342 26.2589 1.23651 26.5927 1.67197 26.8165L11.1162 31.6761V47.5639C11.1133 48.8533 11.6053 50.0981 12.4974 51.0584C16.9541 55.8458 26.9393 63.875 43.7762 63.875C49.3589 63.9195 54.8998 62.9442 60.1062 61.0006V35.8761L58.4052 35L43.7762 42.5239L15.1408 27.7812L8.7347 24.5L43.7762 6.47608L78.8177 24.5L72.4286 27.7812H72.4082L64.1887 32.0272C64.6026 32.2576 64.9462 32.5891 65.1851 32.9882C65.424 33.3874 65.5497 33.8402 65.5496 34.3011V58.4642C69.0987 56.4882 72.3058 53.9895 75.055 51.0584C75.9471 50.0981 76.4391 48.8533 76.4363 47.5639V31.6761L85.8805 26.8165C86.3159 26.5927 86.6801 26.2589 86.934 25.8509C87.1879 25.4428 87.3221 24.9759 87.3221 24.5C87.3221 24.0241 87.1879 23.5571 86.934 23.1491C86.6801 22.741 86.3159 22.4072 85.8805 22.1834Z" fill="white"/>
</svg>
