<svg width="98" height="83" viewBox="0 0 98 83" fill="none" xmlns="http://www.w3.org/2000/svg">
<path d="M62.918 4.25V49.25C62.918 50.2446 62.5084 51.1984 61.7792 51.9017C61.05 52.6049 60.0611 53 59.0299 53H39.5894C38.5582 53 37.5693 52.6049 36.8401 51.9017C36.1109 51.1984 35.7013 50.2446 35.7013 49.25V4.25C35.7013 3.25544 36.1109 2.30161 36.8401 1.59835C37.5693 0.895089 38.5582 0.5 39.5894 0.5H59.0299C60.0611 0.5 61.05 0.895089 61.7792 1.59835C62.5084 2.30161 62.918 3.25544 62.918 4.25ZM94.0228 0.5H74.5823C73.5511 0.5 72.5622 0.895089 71.833 1.59835C71.1038 2.30161 70.6942 3.25544 70.6942 4.25V26.75C70.6942 27.7446 71.1038 28.6984 71.833 29.4016C72.5622 30.1049 73.5511 30.5 74.5823 30.5H94.0228C95.054 30.5 96.043 30.1049 96.7721 29.4016C97.5013 28.6984 97.9109 27.7446 97.9109 26.75V4.25C97.9109 3.25544 97.5013 2.30161 96.7721 1.59835C96.043 0.895089 95.054 0.5 94.0228 0.5ZM94.0228 38H74.5823C73.5511 38 72.5622 38.3951 71.833 39.0983C71.1038 39.8016 70.6942 40.7554 70.6942 41.75V60.5C70.6942 62.4891 71.5135 64.3968 72.9718 65.8033C74.4301 67.2098 76.408 68 78.4704 68H90.1347C92.1971 68 94.175 67.2098 95.6333 65.8033C97.0916 64.3968 97.9109 62.4891 97.9109 60.5V41.75C97.9109 40.7554 97.5013 39.8016 96.7721 39.0983C96.043 38.3951 95.054 38 94.0228 38ZM24.037 0.5H4.59648C3.56529 0.5 2.57633 0.895089 1.84717 1.59835C1.11801 2.30161 0.708374 3.25544 0.708374 4.25V26.75C0.708374 27.7446 1.11801 28.6984 1.84717 29.4016C2.57633 30.1049 3.56529 30.5 4.59648 30.5H24.037C25.0682 30.5 26.0571 30.1049 26.7863 29.4016C27.5154 28.6984 27.9251 27.7446 27.9251 26.75V4.25C27.9251 3.25544 27.5154 2.30161 26.7863 1.59835C26.0571 0.895089 25.0682 0.5 24.037 0.5ZM24.037 38H4.59648C3.56529 38 2.57633 38.3951 1.84717 39.0983C1.11801 39.8016 0.708374 40.7554 0.708374 41.75V75.5C0.708374 77.4891 1.52765 79.3968 2.98597 80.8033C4.44429 82.2098 6.4222 83 8.48458 83H20.1489C22.2113 83 24.1892 82.2098 25.6475 80.8033C27.1058 79.3968 27.9251 77.4891 27.9251 75.5V41.75C27.9251 40.7554 27.5154 39.8016 26.7863 39.0983C26.0571 38.3951 25.0682 38 24.037 38Z" fill="white"/>
</svg>
