<svg width="1920" height="1688" viewBox="0 0 1920 1688" fill="none" xmlns="http://www.w3.org/2000/svg">
<g clip-path="url(#clip0_1_29)">
<rect width="2414" height="1688" transform="translate(-247)" fill="url(#paint0_radial_1_29)"/>
<mask id="mask0_1_29" style="mask-type:luminance" maskUnits="userSpaceOnUse" x="-247" y="0" width="2414" height="1688">
<path d="M2167 0H-247V1688H2167V0Z" fill="url(#paint1_radial_1_29)"/>
</mask>
<g mask="url(#mask0_1_29)">
<path d="M37.852 0H-104.574V142.274H37.852V0Z" stroke="#4C4E72" stroke-width="2"/>
<path d="M180.278 0H37.852V142.274H180.278V0Z" stroke="#4C4E72" stroke-width="2"/>
<path d="M322.704 0H180.278V142.274H322.704V0Z" stroke="#4C4E72" stroke-width="2"/>
<path d="M465.13 0H322.704V142.274H465.13V0Z" stroke="#4C4E72" stroke-width="2"/>
<path d="M607.556 0H465.13V142.274H607.556V0Z" stroke="#4C4E72" stroke-width="2"/>
<path d="M749.982 0H607.556V142.274H749.982V0Z" stroke="#4C4E72" stroke-width="2"/>
<path d="M892.408 0H749.982V142.274H892.408V0Z" stroke="#4C4E72" stroke-width="2"/>
<path d="M1034.83 0H892.408V142.274H1034.83V0Z" stroke="#4C4E72" stroke-width="2"/>
<path d="M1177.26 0H1034.83V142.274H1177.26V0Z" stroke="#4C4E72" stroke-width="2"/>
<path d="M1319.69 0H1177.26V142.274H1319.69V0Z" stroke="#4C4E72" stroke-width="2"/>
<path d="M1462.11 0H1319.69V142.274H1462.11V0Z" stroke="#4C4E72" stroke-width="2"/>
<path d="M1604.54 0H1462.11V142.274H1604.54V0Z" stroke="#4C4E72" stroke-width="2"/>
<path d="M1746.96 0H1604.54V142.274H1746.96V0Z" stroke="#4C4E72" stroke-width="2"/>
<path d="M1889.39 0H1746.96V142.274H1889.39V0Z" stroke="#4C4E72" stroke-width="2"/>
<path d="M2031.82 0H1889.39V142.274H2031.82V0Z" stroke="#4C4E72" stroke-width="2"/>
<path d="M37.852 142.274H-104.574V284.549H37.852V142.274Z" stroke="#4C4E72" stroke-width="2"/>
<path d="M180.278 142.274H37.852V284.549H180.278V142.274Z" stroke="#4C4E72" stroke-width="2"/>
<path d="M322.704 142.274H180.278V284.549H322.704V142.274Z" stroke="#4C4E72" stroke-width="2"/>
<path d="M465.13 142.274H322.704V284.549H465.13V142.274Z" stroke="#4C4E72" stroke-width="2"/>
<path d="M607.556 142.274H465.13V284.549H607.556V142.274Z" stroke="#4C4E72" stroke-width="2"/>
<path d="M749.982 142.274H607.556V284.549H749.982V142.274Z" stroke="#4C4E72" stroke-width="2"/>
<path d="M892.408 142.274H749.982V284.549H892.408V142.274Z" stroke="#4C4E72" stroke-width="2"/>
<path d="M1034.83 142.274H892.408V284.549H1034.83V142.274Z" stroke="#4C4E72" stroke-width="2"/>
<path d="M1177.26 142.274H1034.83V284.549H1177.26V142.274Z" stroke="#4C4E72" stroke-width="2"/>
<path d="M1319.69 142.274H1177.26V284.549H1319.69V142.274Z" stroke="#4C4E72" stroke-width="2"/>
<path d="M1462.11 142.274H1319.69V284.549H1462.11V142.274Z" stroke="#4C4E72" stroke-width="2"/>
<path d="M1604.54 142.274H1462.11V284.549H1604.54V142.274Z" stroke="#4C4E72" stroke-width="2"/>
<path d="M1746.96 142.274H1604.54V284.549H1746.96V142.274Z" stroke="#4C4E72" stroke-width="2"/>
<path d="M1889.39 142.274H1746.96V284.549H1889.39V142.274Z" stroke="#4C4E72" stroke-width="2"/>
<path d="M2031.82 142.274H1889.39V284.549H2031.82V142.274Z" stroke="#4C4E72" stroke-width="2"/>
<path d="M37.852 284.549H-104.574V426.823H37.852V284.549Z" stroke="#4C4E72" stroke-width="2"/>
<path d="M180.278 284.549H37.852V426.823H180.278V284.549Z" stroke="#4C4E72" stroke-width="2"/>
<path d="M322.704 284.549H180.278V426.823H322.704V284.549Z" stroke="#4C4E72" stroke-width="2"/>
<path d="M465.13 284.549H322.704V426.823H465.13V284.549Z" stroke="#4C4E72" stroke-width="2"/>
<path d="M607.556 284.549H465.13V426.823H607.556V284.549Z" stroke="#4C4E72" stroke-width="2"/>
<path d="M749.982 284.549H607.556V426.823H749.982V284.549Z" stroke="#4C4E72" stroke-width="2"/>
<path d="M892.408 284.549H749.982V426.823H892.408V284.549Z" stroke="#4C4E72" stroke-width="2"/>
<path d="M1034.83 284.549H892.408V426.823H1034.83V284.549Z" stroke="#4C4E72" stroke-width="2"/>
<path d="M1177.26 284.549H1034.83V426.823H1177.26V284.549Z" stroke="#4C4E72" stroke-width="2"/>
<path d="M1319.69 284.549H1177.26V426.823H1319.69V284.549Z" stroke="#4C4E72" stroke-width="2"/>
<path d="M1462.11 284.549H1319.69V426.823H1462.11V284.549Z" stroke="#4C4E72" stroke-width="2"/>
<path d="M1604.54 284.549H1462.11V426.823H1604.54V284.549Z" stroke="#4C4E72" stroke-width="2"/>
<path d="M1746.96 284.549H1604.54V426.823H1746.96V284.549Z" stroke="#4C4E72" stroke-width="2"/>
<path d="M1889.39 284.549H1746.96V426.823H1889.39V284.549Z" stroke="#4C4E72" stroke-width="2"/>
<path d="M2031.82 284.549H1889.39V426.823H2031.82V284.549Z" stroke="#4C4E72" stroke-width="2"/>
<path d="M37.852 426.823H-104.574V569.097H37.852V426.823Z" stroke="#4C4E72" stroke-width="2"/>
<path d="M180.278 426.823H37.852V569.097H180.278V426.823Z" stroke="#4C4E72" stroke-width="2"/>
<path d="M322.704 426.823H180.278V569.097H322.704V426.823Z" stroke="#4C4E72" stroke-width="2"/>
<path d="M465.13 426.823H322.704V569.097H465.13V426.823Z" stroke="#4C4E72" stroke-width="2"/>
<path d="M607.556 426.823H465.13V569.097H607.556V426.823Z" stroke="#4C4E72" stroke-width="2"/>
<path d="M749.982 426.823H607.556V569.097H749.982V426.823Z" stroke="#4C4E72" stroke-width="2"/>
<path d="M892.408 426.823H749.982V569.097H892.408V426.823Z" stroke="#4C4E72" stroke-width="2"/>
<path d="M1034.83 426.823H892.408V569.097H1034.83V426.823Z" stroke="#4C4E72" stroke-width="2"/>
<path d="M1177.26 426.823H1034.83V569.097H1177.26V426.823Z" stroke="#4C4E72" stroke-width="2"/>
<path d="M1319.69 426.823H1177.26V569.097H1319.69V426.823Z" stroke="#4C4E72" stroke-width="2"/>
<path d="M1462.11 426.823H1319.69V569.097H1462.11V426.823Z" stroke="#4C4E72" stroke-width="2"/>
<path d="M1604.54 426.823H1462.11V569.097H1604.54V426.823Z" stroke="#4C4E72" stroke-width="2"/>
<path d="M1746.96 426.823H1604.54V569.097H1746.96V426.823Z" stroke="#4C4E72" stroke-width="2"/>
<path d="M1889.39 426.823H1746.96V569.097H1889.39V426.823Z" stroke="#4C4E72" stroke-width="2"/>
<path d="M2031.82 426.823H1889.39V569.097H2031.82V426.823Z" stroke="#4C4E72" stroke-width="2"/>
<path d="M37.852 569.097H-104.574V711.371H37.852V569.097Z" stroke="#4C4E72" stroke-width="2"/>
<path d="M180.278 569.097H37.852V711.371H180.278V569.097Z" stroke="#4C4E72" stroke-width="2"/>
<path d="M322.704 569.097H180.278V711.371H322.704V569.097Z" stroke="#4C4E72" stroke-width="2"/>
<path d="M465.13 569.097H322.704V711.371H465.13V569.097Z" stroke="#4C4E72" stroke-width="2"/>
<path d="M607.556 569.097H465.13V711.371H607.556V569.097Z" stroke="#4C4E72" stroke-width="2"/>
<path d="M749.982 569.097H607.556V711.371H749.982V569.097Z" stroke="#4C4E72" stroke-width="2"/>
<path d="M892.408 569.097H749.982V711.371H892.408V569.097Z" stroke="#4C4E72" stroke-width="2"/>
<path d="M1034.83 569.097H892.408V711.371H1034.83V569.097Z" stroke="#4C4E72" stroke-width="2"/>
<path d="M1177.26 569.097H1034.83V711.371H1177.26V569.097Z" stroke="#4C4E72" stroke-width="2"/>
<path d="M1319.69 569.097H1177.26V711.371H1319.69V569.097Z" stroke="#4C4E72" stroke-width="2"/>
<path d="M1462.11 569.097H1319.69V711.371H1462.11V569.097Z" stroke="#4C4E72" stroke-width="2"/>
<path d="M1604.54 569.097H1462.11V711.371H1604.54V569.097Z" stroke="#4C4E72" stroke-width="2"/>
<path d="M1746.96 569.097H1604.54V711.371H1746.96V569.097Z" stroke="#4C4E72" stroke-width="2"/>
<path d="M1889.39 569.097H1746.96V711.371H1889.39V569.097Z" stroke="#4C4E72" stroke-width="2"/>
<path d="M2031.82 569.097H1889.39V711.371H2031.82V569.097Z" stroke="#4C4E72" stroke-width="2"/>
<path d="M37.852 711.372H-104.574V853.646H37.852V711.372Z" stroke="#4C4E72" stroke-width="2"/>
<path d="M180.278 711.372H37.852V853.646H180.278V711.372Z" stroke="#4C4E72" stroke-width="2"/>
<path d="M322.704 711.372H180.278V853.646H322.704V711.372Z" stroke="#4C4E72" stroke-width="2"/>
<path d="M465.13 711.372H322.704V853.646H465.13V711.372Z" stroke="#4C4E72" stroke-width="2"/>
<path d="M607.556 711.372H465.13V853.646H607.556V711.372Z" stroke="#4C4E72" stroke-width="2"/>
<path d="M749.982 711.372H607.556V853.646H749.982V711.372Z" stroke="#4C4E72" stroke-width="2"/>
<path d="M892.408 711.372H749.982V853.646H892.408V711.372Z" stroke="#4C4E72" stroke-width="2"/>
<path d="M1034.83 711.372H892.408V853.646H1034.83V711.372Z" stroke="#4C4E72" stroke-width="2"/>
<path d="M1177.26 711.372H1034.83V853.646H1177.26V711.372Z" stroke="#4C4E72" stroke-width="2"/>
<path d="M1319.69 711.372H1177.26V853.646H1319.69V711.372Z" stroke="#4C4E72" stroke-width="2"/>
<path d="M1462.11 711.372H1319.69V853.646H1462.11V711.372Z" stroke="#4C4E72" stroke-width="2"/>
<path d="M1604.54 711.372H1462.11V853.646H1604.54V711.372Z" stroke="#4C4E72" stroke-width="2"/>
<path d="M1746.96 711.372H1604.54V853.646H1746.96V711.372Z" stroke="#4C4E72" stroke-width="2"/>
<path d="M1889.39 711.372H1746.96V853.646H1889.39V711.372Z" stroke="#4C4E72" stroke-width="2"/>
<path d="M2031.82 711.372H1889.39V853.646H2031.82V711.372Z" stroke="#4C4E72" stroke-width="2"/>
<path d="M37.852 853.646H-104.574V995.92H37.852V853.646Z" stroke="#4C4E72" stroke-width="2"/>
<path d="M180.278 853.646H37.852V995.92H180.278V853.646Z" stroke="#4C4E72" stroke-width="2"/>
<path d="M322.704 853.646H180.278V995.92H322.704V853.646Z" stroke="#4C4E72" stroke-width="2"/>
<path d="M465.13 853.646H322.704V995.92H465.13V853.646Z" stroke="#4C4E72" stroke-width="2"/>
<path d="M607.556 853.646H465.13V995.92H607.556V853.646Z" stroke="#4C4E72" stroke-width="2"/>
<path d="M749.982 853.646H607.556V995.92H749.982V853.646Z" stroke="#4C4E72" stroke-width="2"/>
<path d="M892.408 853.646H749.982V995.92H892.408V853.646Z" stroke="#4C4E72" stroke-width="2"/>
<path d="M1034.83 853.646H892.408V995.92H1034.83V853.646Z" stroke="#4C4E72" stroke-width="2"/>
<path d="M1177.26 853.646H1034.83V995.92H1177.26V853.646Z" stroke="#4C4E72" stroke-width="2"/>
<path d="M1319.69 853.646H1177.26V995.92H1319.69V853.646Z" stroke="#4C4E72" stroke-width="2"/>
<path d="M1462.11 853.646H1319.69V995.92H1462.11V853.646Z" stroke="#4C4E72" stroke-width="2"/>
<path d="M1604.54 853.646H1462.11V995.92H1604.54V853.646Z" stroke="#4C4E72" stroke-width="2"/>
<path d="M1746.96 853.646H1604.54V995.92H1746.96V853.646Z" stroke="#4C4E72" stroke-width="2"/>
<path d="M1889.39 853.646H1746.96V995.92H1889.39V853.646Z" stroke="#4C4E72" stroke-width="2"/>
<path d="M2031.82 853.646H1889.39V995.92H2031.82V853.646Z" stroke="#4C4E72" stroke-width="2"/>
<path d="M37.852 995.92H-104.574V1138.19H37.852V995.92Z" stroke="#4C4E72" stroke-width="2"/>
<path d="M180.278 995.92H37.852V1138.19H180.278V995.92Z" stroke="#4C4E72" stroke-width="2"/>
<path d="M322.704 995.92H180.278V1138.19H322.704V995.92Z" stroke="#4C4E72" stroke-width="2"/>
<path d="M465.13 995.92H322.704V1138.19H465.13V995.92Z" stroke="#4C4E72" stroke-width="2"/>
<path d="M607.556 995.92H465.13V1138.19H607.556V995.92Z" stroke="#4C4E72" stroke-width="2"/>
<path d="M749.982 995.92H607.556V1138.19H749.982V995.92Z" stroke="#4C4E72" stroke-width="2"/>
<path d="M892.408 995.92H749.982V1138.19H892.408V995.92Z" stroke="#4C4E72" stroke-width="2"/>
<path d="M1034.83 995.92H892.408V1138.19H1034.83V995.92Z" stroke="#4C4E72" stroke-width="2"/>
<path d="M1177.26 995.92H1034.83V1138.19H1177.26V995.92Z" stroke="#4C4E72" stroke-width="2"/>
<path d="M1319.69 995.92H1177.26V1138.19H1319.69V995.92Z" stroke="#4C4E72" stroke-width="2"/>
<path d="M1462.11 995.92H1319.69V1138.19H1462.11V995.92Z" stroke="#4C4E72" stroke-width="2"/>
<path d="M1604.54 995.92H1462.11V1138.19H1604.54V995.92Z" stroke="#4C4E72" stroke-width="2"/>
<path d="M1746.96 995.92H1604.54V1138.19H1746.96V995.92Z" stroke="#4C4E72" stroke-width="2"/>
<path d="M1889.39 995.92H1746.96V1138.19H1889.39V995.92Z" stroke="#4C4E72" stroke-width="2"/>
<path d="M2031.82 995.92H1889.39V1138.19H2031.82V995.92Z" stroke="#4C4E72" stroke-width="2"/>
<path d="M37.852 1138.19H-104.574V1280.47H37.852V1138.19Z" stroke="#4C4E72" stroke-width="2"/>
<path d="M180.278 1138.19H37.852V1280.47H180.278V1138.19Z" stroke="#4C4E72" stroke-width="2"/>
<path d="M322.704 1138.19H180.278V1280.47H322.704V1138.19Z" stroke="#4C4E72" stroke-width="2"/>
<path d="M465.13 1138.19H322.704V1280.47H465.13V1138.19Z" stroke="#4C4E72" stroke-width="2"/>
<path d="M607.556 1138.19H465.13V1280.47H607.556V1138.19Z" stroke="#4C4E72" stroke-width="2"/>
<path d="M749.982 1138.19H607.556V1280.47H749.982V1138.19Z" stroke="#4C4E72" stroke-width="2"/>
<path d="M892.408 1138.19H749.982V1280.47H892.408V1138.19Z" stroke="#4C4E72" stroke-width="2"/>
<path d="M1034.83 1138.19H892.408V1280.47H1034.83V1138.19Z" stroke="#4C4E72" stroke-width="2"/>
<path d="M1177.26 1138.19H1034.83V1280.47H1177.26V1138.19Z" stroke="#4C4E72" stroke-width="2"/>
<path d="M1319.69 1138.19H1177.26V1280.47H1319.69V1138.19Z" stroke="#4C4E72" stroke-width="2"/>
<path d="M1462.11 1138.19H1319.69V1280.47H1462.11V1138.19Z" stroke="#4C4E72" stroke-width="2"/>
<path d="M1604.54 1138.19H1462.11V1280.47H1604.54V1138.19Z" stroke="#4C4E72" stroke-width="2"/>
<path d="M1746.96 1138.19H1604.54V1280.47H1746.96V1138.19Z" stroke="#4C4E72" stroke-width="2"/>
<path d="M1889.39 1138.19H1746.96V1280.47H1889.39V1138.19Z" stroke="#4C4E72" stroke-width="2"/>
<path d="M2031.82 1138.19H1889.39V1280.47H2031.82V1138.19Z" stroke="#4C4E72" stroke-width="2"/>
<path d="M37.852 1280.47H-104.574V1422.74H37.852V1280.47Z" stroke="#4C4E72" stroke-width="2"/>
<path d="M180.278 1280.47H37.852V1422.74H180.278V1280.47Z" stroke="#4C4E72" stroke-width="2"/>
<path d="M322.704 1280.47H180.278V1422.74H322.704V1280.47Z" stroke="#4C4E72" stroke-width="2"/>
<path d="M465.13 1280.47H322.704V1422.74H465.13V1280.47Z" stroke="#4C4E72" stroke-width="2"/>
<path d="M607.556 1280.47H465.13V1422.74H607.556V1280.47Z" stroke="#4C4E72" stroke-width="2"/>
<path d="M749.982 1280.47H607.556V1422.74H749.982V1280.47Z" stroke="#4C4E72" stroke-width="2"/>
<path d="M892.408 1280.47H749.982V1422.74H892.408V1280.47Z" stroke="#4C4E72" stroke-width="2"/>
<path d="M1034.83 1280.47H892.408V1422.74H1034.83V1280.47Z" stroke="#4C4E72" stroke-width="2"/>
<path d="M1177.26 1280.47H1034.83V1422.74H1177.26V1280.47Z" stroke="#4C4E72" stroke-width="2"/>
<path d="M1319.69 1280.47H1177.26V1422.74H1319.69V1280.47Z" stroke="#4C4E72" stroke-width="2"/>
<path d="M1462.11 1280.47H1319.69V1422.74H1462.11V1280.47Z" stroke="#4C4E72" stroke-width="2"/>
<path d="M1604.54 1280.47H1462.11V1422.74H1604.54V1280.47Z" stroke="#4C4E72" stroke-width="2"/>
<path d="M1746.96 1280.47H1604.54V1422.74H1746.96V1280.47Z" stroke="#4C4E72" stroke-width="2"/>
<path d="M1889.39 1280.47H1746.96V1422.74H1889.39V1280.47Z" stroke="#4C4E72" stroke-width="2"/>
<path d="M2031.82 1280.47H1889.39V1422.74H2031.82V1280.47Z" stroke="#4C4E72" stroke-width="2"/>
<path d="M37.852 1422.74H-104.574V1565.02H37.852V1422.74Z" stroke="#4C4E72" stroke-width="2"/>
<path d="M180.278 1422.74H37.852V1565.02H180.278V1422.74Z" stroke="#4C4E72" stroke-width="2"/>
<path d="M322.704 1422.74H180.278V1565.02H322.704V1422.74Z" stroke="#4C4E72" stroke-width="2"/>
<path d="M465.13 1422.74H322.704V1565.02H465.13V1422.74Z" stroke="#4C4E72" stroke-width="2"/>
<path d="M607.556 1422.74H465.13V1565.02H607.556V1422.74Z" stroke="#4C4E72" stroke-width="2"/>
<path d="M749.982 1422.74H607.556V1565.02H749.982V1422.74Z" stroke="#4C4E72" stroke-width="2"/>
<path d="M892.408 1422.74H749.982V1565.02H892.408V1422.74Z" stroke="#4C4E72" stroke-width="2"/>
<path d="M1034.83 1422.74H892.408V1565.02H1034.83V1422.74Z" stroke="#4C4E72" stroke-width="2"/>
<path d="M1177.26 1422.74H1034.83V1565.02H1177.26V1422.74Z" stroke="#4C4E72" stroke-width="2"/>
<path d="M1319.69 1422.74H1177.26V1565.02H1319.69V1422.74Z" stroke="#4C4E72" stroke-width="2"/>
<path d="M1462.11 1422.74H1319.69V1565.02H1462.11V1422.74Z" stroke="#4C4E72" stroke-width="2"/>
<path d="M1604.54 1422.74H1462.11V1565.02H1604.54V1422.74Z" stroke="#4C4E72" stroke-width="2"/>
<path d="M1746.96 1422.74H1604.54V1565.02H1746.96V1422.74Z" stroke="#4C4E72" stroke-width="2"/>
<path d="M1889.39 1422.74H1746.96V1565.02H1889.39V1422.74Z" stroke="#4C4E72" stroke-width="2"/>
<path d="M2031.82 1422.74H1889.39V1565.02H2031.82V1422.74Z" stroke="#4C4E72" stroke-width="2"/>
<path d="M37.852 1565.02H-104.574V1707.29H37.852V1565.02Z" stroke="#4C4E72" stroke-width="2"/>
<path d="M180.278 1565.02H37.852V1707.29H180.278V1565.02Z" stroke="#4C4E72" stroke-width="2"/>
<path d="M322.704 1565.02H180.278V1707.29H322.704V1565.02Z" stroke="#4C4E72" stroke-width="2"/>
<path d="M465.13 1565.02H322.704V1707.29H465.13V1565.02Z" stroke="#4C4E72" stroke-width="2"/>
<path d="M607.556 1565.02H465.13V1707.29H607.556V1565.02Z" stroke="#4C4E72" stroke-width="2"/>
<path d="M749.982 1565.02H607.556V1707.29H749.982V1565.02Z" stroke="#4C4E72" stroke-width="2"/>
<path d="M892.408 1565.02H749.982V1707.29H892.408V1565.02Z" stroke="#4C4E72" stroke-width="2"/>
<path d="M1034.83 1565.02H892.408V1707.29H1034.83V1565.02Z" stroke="#4C4E72" stroke-width="2"/>
<path d="M1177.26 1565.02H1034.83V1707.29H1177.26V1565.02Z" stroke="#4C4E72" stroke-width="2"/>
<path d="M1319.69 1565.02H1177.26V1707.29H1319.69V1565.02Z" stroke="#4C4E72" stroke-width="2"/>
<path d="M1462.11 1565.02H1319.69V1707.29H1462.11V1565.02Z" stroke="#4C4E72" stroke-width="2"/>
<path d="M1604.54 1565.02H1462.11V1707.29H1604.54V1565.02Z" stroke="#4C4E72" stroke-width="2"/>
<path d="M1746.96 1565.02H1604.54V1707.29H1746.96V1565.02Z" stroke="#4C4E72" stroke-width="2"/>
<path d="M1889.39 1565.02H1746.96V1707.29H1889.39V1565.02Z" stroke="#4C4E72" stroke-width="2"/>
<path d="M2031.82 1565.02H1889.39V1707.29H2031.82V1565.02Z" stroke="#4C4E72" stroke-width="2"/>
</g>
</g>
<defs>
<radialGradient id="paint0_radial_1_29" cx="0" cy="0" r="1" gradientUnits="userSpaceOnUse" gradientTransform="translate(1207 844) rotate(90) scale(844 1207)">
<stop stop-color="#289DF2" stop-opacity="0.4"/>
<stop offset="1" stop-color="#6F30D8" stop-opacity="0"/>
</radialGradient>
<radialGradient id="paint1_radial_1_29" cx="0" cy="0" r="1" gradientUnits="userSpaceOnUse" gradientTransform="translate(960 844) scale(1207 844)">
<stop stop-color="white"/>
<stop offset="1" stop-color="white" stop-opacity="0"/>
</radialGradient>
<clipPath id="clip0_1_29">
<rect width="2414" height="1688" fill="white" transform="translate(-247)"/>
</clipPath>
</defs>
</svg>
