<svg width="1481" height="1218" viewBox="0 0 1481 1218" fill="none" xmlns="http://www.w3.org/2000/svg">
<g clip-path="url(#clip0_1_334)">
<rect width="2553" height="1218" transform="translate(-1072)" fill="url(#paint0_radial_1_334)" fill-opacity="0.35"/>
<mask id="mask0_1_334" style="mask-type:luminance" maskUnits="userSpaceOnUse" x="-1286" y="-52" width="2553" height="1218">
<path d="M1267 -52H-1286V1166H1267V-52Z" fill="url(#paint1_radial_1_334)"/>
</mask>
<g mask="url(#mask0_1_334)">
<path d="M69.643 -52H-80.984V50.66H69.643V-52Z" stroke="#4C4E72" stroke-width="2"/>
<path d="M220.27 -52H69.6431V50.66H220.27V-52Z" stroke="#4C4E72" stroke-width="2"/>
<path d="M370.897 -52H220.27V50.66H370.897V-52Z" stroke="#4C4E72" stroke-width="2"/>
<path d="M521.524 -52H370.897V50.66H521.524V-52Z" stroke="#4C4E72" stroke-width="2"/>
<path d="M672.151 -52H521.524V50.66H672.151V-52Z" stroke="#4C4E72" stroke-width="2"/>
<path d="M822.778 -52H672.151V50.66H822.778V-52Z" stroke="#4C4E72" stroke-width="2"/>
<path d="M973.405 -52H822.778V50.66H973.405V-52Z" stroke="#4C4E72" stroke-width="2"/>
<path d="M1124.03 -52H973.405V50.66H1124.03V-52Z" stroke="#4C4E72" stroke-width="2"/>
<path d="M1274.66 -52H1124.03V50.66H1274.66V-52Z" stroke="#4C4E72" stroke-width="2"/>
<path d="M69.643 50.6599H-80.984V153.32H69.643V50.6599Z" stroke="#4C4E72" stroke-width="2"/>
<path d="M220.27 50.6599H69.6431V153.32H220.27V50.6599Z" stroke="#4C4E72" stroke-width="2"/>
<path d="M370.897 50.6599H220.27V153.32H370.897V50.6599Z" stroke="#4C4E72" stroke-width="2"/>
<path d="M521.524 50.6599H370.897V153.32H521.524V50.6599Z" stroke="#4C4E72" stroke-width="2"/>
<path d="M672.151 50.6599H521.524V153.32H672.151V50.6599Z" stroke="#4C4E72" stroke-width="2"/>
<path d="M822.778 50.6599H672.151V153.32H822.778V50.6599Z" stroke="#4C4E72" stroke-width="2"/>
<path d="M973.405 50.6599H822.778V153.32H973.405V50.6599Z" stroke="#4C4E72" stroke-width="2"/>
<path d="M1124.03 50.6599H973.405V153.32H1124.03V50.6599Z" stroke="#4C4E72" stroke-width="2"/>
<path d="M1274.66 50.6599H1124.03V153.32H1274.66V50.6599Z" stroke="#4C4E72" stroke-width="2"/>
<path d="M69.643 153.32H-80.984V255.98H69.643V153.32Z" stroke="#4C4E72" stroke-width="2"/>
<path d="M220.27 153.32H69.6431V255.98H220.27V153.32Z" stroke="#4C4E72" stroke-width="2"/>
<path d="M370.897 153.32H220.27V255.98H370.897V153.32Z" stroke="#4C4E72" stroke-width="2"/>
<path d="M521.524 153.32H370.897V255.98H521.524V153.32Z" stroke="#4C4E72" stroke-width="2"/>
<path d="M672.151 153.32H521.524V255.98H672.151V153.32Z" stroke="#4C4E72" stroke-width="2"/>
<path d="M822.778 153.32H672.151V255.98H822.778V153.32Z" stroke="#4C4E72" stroke-width="2"/>
<path d="M973.405 153.32H822.778V255.98H973.405V153.32Z" stroke="#4C4E72" stroke-width="2"/>
<path d="M1124.03 153.32H973.405V255.98H1124.03V153.32Z" stroke="#4C4E72" stroke-width="2"/>
<path d="M1274.66 153.32H1124.03V255.98H1274.66V153.32Z" stroke="#4C4E72" stroke-width="2"/>
<path d="M69.643 255.98H-80.984V358.64H69.643V255.98Z" stroke="#4C4E72" stroke-width="2"/>
<path d="M220.27 255.98H69.6431V358.64H220.27V255.98Z" stroke="#4C4E72" stroke-width="2"/>
<path d="M370.897 255.98H220.27V358.64H370.897V255.98Z" stroke="#4C4E72" stroke-width="2"/>
<path d="M521.524 255.98H370.897V358.64H521.524V255.98Z" stroke="#4C4E72" stroke-width="2"/>
<path d="M672.151 255.98H521.524V358.64H672.151V255.98Z" stroke="#4C4E72" stroke-width="2"/>
<path d="M822.778 255.98H672.151V358.64H822.778V255.98Z" stroke="#4C4E72" stroke-width="2"/>
<path d="M973.405 255.98H822.778V358.64H973.405V255.98Z" stroke="#4C4E72" stroke-width="2"/>
<path d="M1124.03 255.98H973.405V358.64H1124.03V255.98Z" stroke="#4C4E72" stroke-width="2"/>
<path d="M1274.66 255.98H1124.03V358.64H1274.66V255.98Z" stroke="#4C4E72" stroke-width="2"/>
<path d="M69.643 358.64H-80.984V461.3H69.643V358.64Z" stroke="#4C4E72" stroke-width="2"/>
<path d="M220.27 358.64H69.6431V461.3H220.27V358.64Z" stroke="#4C4E72" stroke-width="2"/>
<path d="M370.897 358.64H220.27V461.3H370.897V358.64Z" stroke="#4C4E72" stroke-width="2"/>
<path d="M521.524 358.64H370.897V461.3H521.524V358.64Z" stroke="#4C4E72" stroke-width="2"/>
<path d="M672.151 358.64H521.524V461.3H672.151V358.64Z" stroke="#4C4E72" stroke-width="2"/>
<path d="M822.778 358.64H672.151V461.3H822.778V358.64Z" stroke="#4C4E72" stroke-width="2"/>
<path d="M973.405 358.64H822.778V461.3H973.405V358.64Z" stroke="#4C4E72" stroke-width="2"/>
<path d="M1124.03 358.64H973.405V461.3H1124.03V358.64Z" stroke="#4C4E72" stroke-width="2"/>
<path d="M1274.66 358.64H1124.03V461.3H1274.66V358.64Z" stroke="#4C4E72" stroke-width="2"/>
<path d="M69.643 461.3H-80.984V563.96H69.643V461.3Z" stroke="#4C4E72" stroke-width="2"/>
<path d="M220.27 461.3H69.6431V563.96H220.27V461.3Z" stroke="#4C4E72" stroke-width="2"/>
<path d="M370.897 461.3H220.27V563.96H370.897V461.3Z" stroke="#4C4E72" stroke-width="2"/>
<path d="M521.524 461.3H370.897V563.96H521.524V461.3Z" stroke="#4C4E72" stroke-width="2"/>
<path d="M672.151 461.3H521.524V563.96H672.151V461.3Z" stroke="#4C4E72" stroke-width="2"/>
<path d="M822.778 461.3H672.151V563.96H822.778V461.3Z" stroke="#4C4E72" stroke-width="2"/>
<path d="M973.405 461.3H822.778V563.96H973.405V461.3Z" stroke="#4C4E72" stroke-width="2"/>
<path d="M1124.03 461.3H973.405V563.96H1124.03V461.3Z" stroke="#4C4E72" stroke-width="2"/>
<path d="M1274.66 461.3H1124.03V563.96H1274.66V461.3Z" stroke="#4C4E72" stroke-width="2"/>
<path d="M69.643 563.96H-80.984V666.62H69.643V563.96Z" stroke="#4C4E72" stroke-width="2"/>
<path d="M220.27 563.96H69.6431V666.62H220.27V563.96Z" stroke="#4C4E72" stroke-width="2"/>
<path d="M370.897 563.96H220.27V666.62H370.897V563.96Z" stroke="#4C4E72" stroke-width="2"/>
<path d="M521.524 563.96H370.897V666.62H521.524V563.96Z" stroke="#4C4E72" stroke-width="2"/>
<path d="M672.151 563.96H521.524V666.62H672.151V563.96Z" stroke="#4C4E72" stroke-width="2"/>
<path d="M822.778 563.96H672.151V666.62H822.778V563.96Z" stroke="#4C4E72" stroke-width="2"/>
<path d="M973.405 563.96H822.778V666.62H973.405V563.96Z" stroke="#4C4E72" stroke-width="2"/>
<path d="M1124.03 563.96H973.405V666.62H1124.03V563.96Z" stroke="#4C4E72" stroke-width="2"/>
<path d="M1274.66 563.96H1124.03V666.62H1274.66V563.96Z" stroke="#4C4E72" stroke-width="2"/>
<path d="M69.643 666.62H-80.984V769.28H69.643V666.62Z" stroke="#4C4E72" stroke-width="2"/>
<path d="M220.27 666.62H69.6431V769.28H220.27V666.62Z" stroke="#4C4E72" stroke-width="2"/>
<path d="M370.897 666.62H220.27V769.28H370.897V666.62Z" stroke="#4C4E72" stroke-width="2"/>
<path d="M521.524 666.62H370.897V769.28H521.524V666.62Z" stroke="#4C4E72" stroke-width="2"/>
<path d="M672.151 666.62H521.524V769.28H672.151V666.62Z" stroke="#4C4E72" stroke-width="2"/>
<path d="M822.778 666.62H672.151V769.28H822.778V666.62Z" stroke="#4C4E72" stroke-width="2"/>
<path d="M973.405 666.62H822.778V769.28H973.405V666.62Z" stroke="#4C4E72" stroke-width="2"/>
<path d="M1124.03 666.62H973.405V769.28H1124.03V666.62Z" stroke="#4C4E72" stroke-width="2"/>
<path d="M1274.66 666.62H1124.03V769.28H1274.66V666.62Z" stroke="#4C4E72" stroke-width="2"/>
<path d="M69.643 769.28H-80.984V871.94H69.643V769.28Z" stroke="#4C4E72" stroke-width="2"/>
<path d="M220.27 769.28H69.6431V871.94H220.27V769.28Z" stroke="#4C4E72" stroke-width="2"/>
<path d="M370.897 769.28H220.27V871.94H370.897V769.28Z" stroke="#4C4E72" stroke-width="2"/>
<path d="M521.524 769.28H370.897V871.94H521.524V769.28Z" stroke="#4C4E72" stroke-width="2"/>
<path d="M672.151 769.28H521.524V871.94H672.151V769.28Z" stroke="#4C4E72" stroke-width="2"/>
<path d="M822.778 769.28H672.151V871.94H822.778V769.28Z" stroke="#4C4E72" stroke-width="2"/>
<path d="M973.405 769.28H822.778V871.94H973.405V769.28Z" stroke="#4C4E72" stroke-width="2"/>
<path d="M1124.03 769.28H973.405V871.94H1124.03V769.28Z" stroke="#4C4E72" stroke-width="2"/>
<path d="M1274.66 769.28H1124.03V871.94H1274.66V769.28Z" stroke="#4C4E72" stroke-width="2"/>
<path d="M69.643 871.94H-80.984V974.6H69.643V871.94Z" stroke="#4C4E72" stroke-width="2"/>
<path d="M220.27 871.94H69.6431V974.6H220.27V871.94Z" stroke="#4C4E72" stroke-width="2"/>
<path d="M370.897 871.94H220.27V974.6H370.897V871.94Z" stroke="#4C4E72" stroke-width="2"/>
<path d="M521.524 871.94H370.897V974.6H521.524V871.94Z" stroke="#4C4E72" stroke-width="2"/>
<path d="M672.151 871.94H521.524V974.6H672.151V871.94Z" stroke="#4C4E72" stroke-width="2"/>
<path d="M822.778 871.94H672.151V974.6H822.778V871.94Z" stroke="#4C4E72" stroke-width="2"/>
<path d="M973.405 871.94H822.778V974.6H973.405V871.94Z" stroke="#4C4E72" stroke-width="2"/>
<path d="M1124.03 871.94H973.405V974.6H1124.03V871.94Z" stroke="#4C4E72" stroke-width="2"/>
<path d="M1274.66 871.94H1124.03V974.6H1274.66V871.94Z" stroke="#4C4E72" stroke-width="2"/>
<path d="M69.643 974.6H-80.984V1077.26H69.643V974.6Z" stroke="#4C4E72" stroke-width="2"/>
<path d="M220.27 974.6H69.6431V1077.26H220.27V974.6Z" stroke="#4C4E72" stroke-width="2"/>
<path d="M370.897 974.6H220.27V1077.26H370.897V974.6Z" stroke="#4C4E72" stroke-width="2"/>
<path d="M521.524 974.6H370.897V1077.26H521.524V974.6Z" stroke="#4C4E72" stroke-width="2"/>
<path d="M672.151 974.6H521.524V1077.26H672.151V974.6Z" stroke="#4C4E72" stroke-width="2"/>
<path d="M822.778 974.6H672.151V1077.26H822.778V974.6Z" stroke="#4C4E72" stroke-width="2"/>
<path d="M973.405 974.6H822.778V1077.26H973.405V974.6Z" stroke="#4C4E72" stroke-width="2"/>
<path d="M1124.03 974.6H973.405V1077.26H1124.03V974.6Z" stroke="#4C4E72" stroke-width="2"/>
<path d="M1274.66 974.6H1124.03V1077.26H1274.66V974.6Z" stroke="#4C4E72" stroke-width="2"/>
<path d="M69.643 1077.26H-80.984V1179.92H69.643V1077.26Z" stroke="#4C4E72" stroke-width="2"/>
<path d="M220.27 1077.26H69.6431V1179.92H220.27V1077.26Z" stroke="#4C4E72" stroke-width="2"/>
<path d="M370.897 1077.26H220.27V1179.92H370.897V1077.26Z" stroke="#4C4E72" stroke-width="2"/>
<path d="M521.524 1077.26H370.897V1179.92H521.524V1077.26Z" stroke="#4C4E72" stroke-width="2"/>
<path d="M672.151 1077.26H521.524V1179.92H672.151V1077.26Z" stroke="#4C4E72" stroke-width="2"/>
<path d="M822.778 1077.26H672.151V1179.92H822.778V1077.26Z" stroke="#4C4E72" stroke-width="2"/>
<path d="M973.405 1077.26H822.778V1179.92H973.405V1077.26Z" stroke="#4C4E72" stroke-width="2"/>
<path d="M1124.03 1077.26H973.405V1179.92H1124.03V1077.26Z" stroke="#4C4E72" stroke-width="2"/>
<path d="M1274.66 1077.26H1124.03V1179.92H1274.66V1077.26Z" stroke="#4C4E72" stroke-width="2"/>
</g>
</g>
<defs>
<radialGradient id="paint0_radial_1_334" cx="0" cy="0" r="1" gradientUnits="userSpaceOnUse" gradientTransform="translate(1276.5 609) rotate(90) scale(609 1276.5)">
<stop stop-color="#6F30D8" stop-opacity="0.4"/>
<stop offset="1" stop-color="#261850" stop-opacity="0"/>
</radialGradient>
<radialGradient id="paint1_radial_1_334" cx="0" cy="0" r="1" gradientUnits="userSpaceOnUse" gradientTransform="translate(-9.5 557) scale(1276.5 609)">
<stop stop-color="white"/>
<stop offset="1" stop-color="white" stop-opacity="0"/>
</radialGradient>
<clipPath id="clip0_1_334">
<rect width="2553" height="1218" fill="white" transform="translate(-1072)"/>
</clipPath>
</defs>
</svg>
