<svg width="66" height="49" viewBox="0 0 66 49" fill="none" xmlns="http://www.w3.org/2000/svg">
<path d="M15.5328 27.4141C15.5402 27.5622 15.5174 27.7104 15.4658 27.8494C15.4142 27.9885 15.3348 28.1156 15.2325 28.2231C15.1301 28.3305 15.007 28.416 14.8706 28.4743C14.7343 28.5327 14.5874 28.5627 14.4391 28.5625H2.375C1.88127 28.5632 1.4018 28.3969 1.01457 28.0906C0.627346 27.7843 0.355128 27.356 0.242187 26.8754C0.171862 26.5464 0.175104 26.2059 0.251681 25.8784C0.328258 25.5508 0.476279 25.2442 0.685156 24.9805C2.6151 22.421 5.17579 20.4058 8.11719 19.1316C6.82581 17.9542 5.83537 16.4845 5.2288 14.8456C4.62223 13.2067 4.41721 11.4463 4.63089 9.71185C4.84458 7.97741 5.47076 6.31942 6.45698 4.87674C7.4432 3.43406 8.76076 2.2487 10.2993 1.41994C11.8378 0.591176 13.5526 0.143136 15.2999 0.113345C17.0472 0.0835539 18.7762 0.472879 20.3421 1.24871C21.908 2.02455 23.2652 3.1643 24.3 4.57252C25.3348 5.98074 26.0172 7.61642 26.2898 9.34257C26.3251 9.57469 26.2835 9.81197 26.1714 10.0183C26.0594 10.2246 25.883 10.3887 25.6691 10.4855C22.635 11.8882 20.0655 14.1295 18.2636 16.9449C16.4618 19.7603 15.5029 23.0324 15.5 26.375C15.5 26.725 15.5 27.0695 15.5328 27.4141ZM65.2984 24.9777C63.373 22.4213 60.8181 20.4072 57.8828 19.1316C59.1742 17.9542 60.1646 16.4845 60.7712 14.8456C61.3778 13.2067 61.5828 11.4463 61.3691 9.71185C61.1554 7.97741 60.5292 6.31942 59.543 4.87674C58.5568 3.43406 57.2392 2.2487 55.7007 1.41994C54.1622 0.591176 52.4474 0.143136 50.7001 0.113345C48.9528 0.0835539 47.2238 0.472879 45.6579 1.24871C44.092 2.02455 42.7348 3.1643 41.7 4.57252C40.6652 5.98074 39.9828 7.61642 39.7101 9.34257C39.6749 9.57469 39.7165 9.81197 39.8286 10.0183C39.9406 10.2246 40.117 10.3887 40.3309 10.4855C43.3649 11.8882 45.9345 14.1295 47.7363 16.9449C49.5382 19.7603 50.4971 23.0324 50.5 26.375C50.5 26.725 50.5 27.0695 50.4672 27.4141C50.4598 27.5622 50.4826 27.7104 50.5342 27.8494C50.5858 27.9885 50.6652 28.1156 50.7675 28.2231C50.8698 28.3305 50.9929 28.416 51.1293 28.4743C51.2657 28.5327 51.4126 28.5627 51.5609 28.5625H63.625C64.1187 28.5632 64.5982 28.3969 64.9854 28.0906C65.3726 27.7843 65.6449 27.356 65.7578 26.8754C65.8286 26.5458 65.8253 26.2046 65.7482 25.8765C65.6711 25.5483 65.5222 25.2413 65.3121 24.9777H65.2984ZM40.9625 36.7848C43.1406 35.1167 44.7412 32.8081 45.5394 30.1833C46.3376 27.5586 46.2933 24.7497 45.4126 22.1514C44.532 19.5532 42.8593 17.2962 40.6297 15.6977C38.4001 14.0992 35.7257 13.2395 32.9822 13.2395C30.2388 13.2395 27.5643 14.0992 25.3347 15.6977C23.1051 17.2962 21.4324 19.5532 20.5518 22.1514C19.6712 24.7497 19.6268 27.5586 20.4251 30.1833C21.2233 32.8081 22.8239 35.1167 25.0019 36.7848C21.137 38.4594 17.9097 41.3273 15.7926 44.9687C15.6006 45.3013 15.4995 45.6786 15.4995 46.0626C15.4995 46.4466 15.6006 46.8239 15.7927 47.1565C15.9848 47.489 16.261 47.7651 16.5936 47.9571C16.9262 48.1491 17.3035 48.2501 17.6875 48.25H48.3125C48.6965 48.2501 49.0738 48.1491 49.4064 47.9571C49.739 47.7651 50.0152 47.489 50.2073 47.1565C50.3993 46.8239 50.5005 46.4466 50.5005 46.0626C50.5005 45.6786 50.3994 45.3013 50.2074 44.9687C48.0857 41.3249 44.8524 38.4568 40.9816 36.7848H40.9625Z" fill="white"/>
</svg>
