<svg width="48" height="48" viewBox="0 0 48 48" fill="none" xmlns="http://www.w3.org/2000/svg">
<path d="M43.375 0.75H4.625C3.59729 0.75 2.61166 1.15826 1.88496 1.88496C1.15826 2.61166 0.75 3.59729 0.75 4.625V43.375C0.75 44.4027 1.15826 45.3883 1.88496 46.115C2.61166 46.8417 3.59729 47.25 4.625 47.25H43.375C44.4027 47.25 45.3883 46.8417 46.115 46.115C46.8417 45.3883 47.25 44.4027 47.25 43.375V4.625C47.25 3.59729 46.8417 2.61166 46.115 1.88496C45.3883 1.15826 44.4027 0.75 43.375 0.75ZM35.0583 19.5583L21.4958 33.1208C21.3158 33.3009 21.1022 33.4438 20.8669 33.5413C20.6317 33.6388 20.3796 33.689 20.125 33.689C19.8704 33.689 19.6183 33.6388 19.3831 33.5413C19.1478 33.4438 18.9342 33.3009 18.7542 33.1208L12.9417 27.3083C12.5782 26.9447 12.3739 26.4516 12.3739 25.9375C12.3739 25.4234 12.5782 24.9303 12.9417 24.5667C13.3053 24.2032 13.7984 23.9989 14.3125 23.9989C14.8266 23.9989 15.3197 24.2032 15.6833 24.5667L20.125 29.0109L32.3167 16.8167C32.4967 16.6367 32.7104 16.4939 32.9456 16.3965C33.1808 16.2991 33.4329 16.2489 33.6875 16.2489C33.9421 16.2489 34.1942 16.2991 34.4294 16.3965C34.6646 16.4939 34.8783 16.6367 35.0583 16.8167C35.2383 16.9967 35.3811 17.2104 35.4785 17.4456C35.5759 17.6808 35.6261 17.9329 35.6261 18.1875C35.6261 18.4421 35.5759 18.6942 35.4785 18.9294C35.3811 19.1646 35.2383 19.3783 35.0583 19.5583Z" fill="#E9E8E8"/>
</svg>
