<svg width="52" height="50" viewBox="0 0 52 50" fill="none" xmlns="http://www.w3.org/2000/svg">
<path d="M51.125 18.25C51.125 18.7639 50.9208 19.2567 50.5575 19.62C50.1941 19.9834 49.7013 20.1875 49.1875 20.1875H45.3125V24.0625C45.3125 24.5764 45.1083 25.0692 44.745 25.4325C44.3816 25.7959 43.8888 26 43.375 26C42.8611 26 42.3683 25.7959 42.005 25.4325C41.6416 25.0692 41.4375 24.5764 41.4375 24.0625V20.1875H37.5625C37.0486 20.1875 36.5558 19.9834 36.1925 19.62C35.8291 19.2567 35.625 18.7639 35.625 18.25C35.625 17.7361 35.8291 17.2433 36.1925 16.88C36.5558 16.5166 37.0486 16.3125 37.5625 16.3125H41.4375V12.4375C41.4375 11.9236 41.6416 11.4308 42.005 11.0675C42.3683 10.7041 42.8611 10.5 43.375 10.5C43.8888 10.5 44.3816 10.7041 44.745 11.0675C45.1083 11.4308 45.3125 11.9236 45.3125 12.4375V16.3125H49.1875C49.7013 16.3125 50.1941 16.5166 50.5575 16.88C50.9208 17.2433 51.125 17.7361 51.125 18.25ZM27.875 8.5625H29.8125V10.5C29.8125 11.0139 30.0166 11.5067 30.38 11.87C30.7433 12.2334 31.2361 12.4375 31.75 12.4375C32.2638 12.4375 32.7566 12.2334 33.12 11.87C33.4833 11.5067 33.6875 11.0139 33.6875 10.5V8.5625H35.625C36.1388 8.5625 36.6316 8.35837 36.995 7.99502C37.3583 7.63167 37.5625 7.13886 37.5625 6.625C37.5625 6.11114 37.3583 5.61833 36.995 5.25498C36.6316 4.89163 36.1388 4.6875 35.625 4.6875H33.6875V2.75C33.6875 2.23614 33.4833 1.74333 33.12 1.37998C32.7566 1.01663 32.2638 0.8125 31.75 0.8125C31.2361 0.8125 30.7433 1.01663 30.38 1.37998C30.0166 1.74333 29.8125 2.23614 29.8125 2.75V4.6875H27.875C27.3611 4.6875 26.8683 4.89163 26.505 5.25498C26.1416 5.61833 25.9375 6.11114 25.9375 6.625C25.9375 7.13886 26.1416 7.63167 26.505 7.99502C26.8683 8.35837 27.3611 8.5625 27.875 8.5625ZM43.6511 31.408C40.2145 32.087 36.6636 31.9091 33.3121 30.8901C29.9606 29.8711 26.9117 28.0423 24.4347 25.5653C21.9577 23.0883 20.1289 20.0394 19.1099 16.6879C18.0909 13.3364 17.913 9.78547 18.5919 6.34891C18.6584 6.01166 18.634 5.66278 18.5212 5.33808C18.4084 5.01337 18.2112 4.72453 17.9499 4.50119C17.6886 4.27785 17.3726 4.12805 17.0343 4.06715C16.6959 4.00626 16.3475 4.03647 16.0247 4.15469C12.3559 5.49624 9.08428 7.74057 6.5119 10.6804C3.93952 13.6203 2.14936 17.1609 1.3067 20.9754C0.464054 24.7898 0.596087 28.7551 1.69061 32.505C2.78514 36.2549 4.80686 39.6686 7.56911 42.4309C10.3313 45.1931 13.745 47.2148 17.495 48.3094C21.2449 49.4039 25.2102 49.5359 29.0246 48.6933C32.839 47.8506 36.3797 46.0605 39.3195 43.4881C42.2594 40.9157 44.5037 37.644 45.8453 33.9752C45.9635 33.6525 45.9937 33.304 45.9328 32.9657C45.8719 32.6274 45.7221 32.3114 45.4988 32.0501C45.2754 31.7888 44.9866 31.5916 44.6619 31.4788C44.3372 31.3659 43.9883 31.3415 43.6511 31.408Z" fill="#E9E8E8"/>
</svg>
