<svg width="50" height="50" viewBox="0 0 50 50" fill="none" xmlns="http://www.w3.org/2000/svg">
<path d="M20.1318 38.0324C20.0373 38.4077 17.676 47.25 4.68747 47.25C4.17362 47.25 3.68081 47.0459 3.31746 46.6825C2.9541 46.3192 2.74997 45.8264 2.74997 45.3125C2.74997 32.324 11.5922 29.9627 11.9676 29.8682C12.4664 29.7436 12.9942 29.8222 13.435 30.0868C13.8758 30.3514 14.1935 30.7802 14.3181 31.279C14.4427 31.7777 14.364 32.3056 14.0995 32.7463C13.8349 33.1871 13.4061 33.5048 12.9073 33.6294C12.6894 33.6899 7.47747 35.2133 6.71701 43.283C14.7867 42.5225 16.3125 37.3203 16.3754 37.0781C16.5039 36.58 16.825 36.1533 17.268 35.8919C17.7111 35.6306 18.2399 35.5559 18.738 35.6843C19.2361 35.8128 19.6628 36.1339 19.9242 36.577C20.1856 37.02 20.2602 37.5488 20.1318 38.0469V38.0324ZM42.6552 21.7089L41.5 22.8642V36.9909C41.5029 37.5018 41.4041 38.0081 41.2095 38.4804C41.015 38.9527 40.7284 39.3816 40.3665 39.7422L32.0547 48.0492C31.6962 48.4102 31.2698 48.6967 30.8001 48.892C30.3304 49.0874 29.8267 49.1878 29.3179 49.1875C28.8981 49.1874 28.481 49.1195 28.0828 48.9865C27.3991 48.7604 26.7922 48.3475 26.3309 47.7945C25.8695 47.2416 25.572 46.5706 25.472 45.8574L24.1715 36.5356L13.4643 25.8285L4.1474 24.528C3.43329 24.4278 2.76129 24.1304 2.20701 23.6692C1.65272 23.2079 1.23812 22.6012 1.00987 21.9171C0.781609 21.2331 0.748743 20.499 0.914964 19.7973C1.08119 19.0956 1.4399 18.4543 1.95076 17.9453L10.2578 9.63345C10.6183 9.27158 11.0473 8.98502 11.5196 8.79044C11.9919 8.59586 12.4982 8.49713 13.009 8.50001H27.1358L28.2911 7.34478C34.7526 0.885636 42.5365 0.60712 45.5857 0.788761C46.5304 0.846171 47.4214 1.24734 48.0907 1.91659C48.7599 2.58583 49.1611 3.47686 49.2185 4.42157C49.3953 7.46103 49.1168 15.2474 42.6576 21.7089H42.6552ZM23.2608 12.375H13.009L4.68747 20.6917L13.6847 21.9463L23.2608 12.375ZM37.625 26.7392L28.0513 36.3128L29.3107 45.3125L37.625 36.9909V26.7392Z" fill="#E9E8E8"/>
</svg>
