<svg width="85" height="62" viewBox="0 0 85 62" fill="none" xmlns="http://www.w3.org/2000/svg">
<path d="M0 3.44434C0 2.53084 0.344495 1.65476 0.9577 1.00882C1.5709 0.362885 2.40259 0 3.26979 0H75.2052C76.0724 0 76.9041 0.362885 77.5173 1.00882C78.1305 1.65476 78.475 2.53084 78.475 3.44434C78.475 4.35783 78.1305 5.23391 77.5173 5.87985C76.9041 6.52579 76.0724 6.88868 75.2052 6.88868H3.26979C2.40259 6.88868 1.5709 6.52579 0.9577 5.87985C0.344495 5.23391 0 4.35783 0 3.44434ZM3.26979 34.4434H32.6979C33.5651 34.4434 34.3968 34.0805 35.01 33.4346C35.6232 32.7886 35.9677 31.9125 35.9677 30.999C35.9677 30.0855 35.6232 29.2095 35.01 28.5635C34.3968 27.9176 33.5651 27.5547 32.6979 27.5547H3.26979C2.40259 27.5547 1.5709 27.9176 0.9577 28.5635C0.344495 29.2095 0 30.0855 0 30.999C0 31.9125 0.344495 32.7886 0.9577 33.4346C1.5709 34.0805 2.40259 34.4434 3.26979 34.4434ZM39.2375 55.1094H3.26979C2.40259 55.1094 1.5709 55.4723 0.9577 56.1182C0.344495 56.7642 0 57.6402 0 58.5537C0 59.4672 0.344495 60.3433 0.9577 60.9893C1.5709 61.6352 2.40259 61.9981 3.26979 61.9981H39.2375C40.1047 61.9981 40.9364 61.6352 41.5496 60.9893C42.1628 60.3433 42.5073 59.4672 42.5073 58.5537C42.5073 57.6402 42.1628 56.7642 41.5496 56.1182C40.9364 55.4723 40.1047 55.1094 39.2375 55.1094ZM84.0581 56.1169L75.761 47.3596C77.9916 43.7983 78.8877 39.4916 78.2759 35.274C77.664 31.0564 75.5877 27.2282 72.4492 24.5312C69.3108 21.8342 65.3336 20.4604 61.2885 20.6759C57.2433 20.8915 53.4181 22.6811 50.5541 25.6981C47.6901 28.715 45.9911 32.7444 45.7865 37.0055C45.5818 41.2666 46.886 45.456 49.4464 48.762C52.0067 52.068 55.6409 54.2552 59.6448 54.8997C63.6486 55.5442 67.7371 54.6002 71.1179 52.2506L79.415 60.9906C80.0286 61.6369 80.8607 62 81.7284 62C82.5961 62 83.4282 61.6369 84.0418 60.9906C84.6553 60.3443 85 59.4677 85 58.5537C85 57.6397 84.6553 56.7632 84.0418 56.1169H84.0581Z" fill="#E9E8E8"/>
</svg>
