<svg width="54" height="54" viewBox="0 0 54 54" fill="none" xmlns="http://www.w3.org/2000/svg">
<path d="M33.75 0.875C30.6919 0.877742 27.6779 1.60369 24.9539 2.99356C22.2299 4.38343 19.8732 6.39783 18.0763 8.87228C16.2794 11.3467 15.0932 14.2111 14.6145 17.2315C14.1358 20.2518 14.3782 23.3426 15.322 26.2514L1.37922 40.1917C1.19935 40.3718 1.05673 40.5855 0.959486 40.8207C0.862247 41.0559 0.8123 41.308 0.812501 41.5625V51.25C0.812501 51.7639 1.01663 52.2567 1.37998 52.62C1.74333 52.9834 2.23614 53.1875 2.75 53.1875H12.4375C12.9514 53.1875 13.4442 52.9834 13.8075 52.62C14.1709 52.2567 14.375 51.7639 14.375 51.25V47.375H18.25C18.7639 47.375 19.2567 47.1709 19.62 46.8075C19.9834 46.4442 20.1875 45.9514 20.1875 45.4375V41.5625H24.0625C24.317 41.5627 24.5691 41.5128 24.8043 41.4155C25.0395 41.3183 25.2532 41.1756 25.4333 40.9958L27.7486 38.678C30.4115 39.5426 33.2301 39.8198 36.0105 39.4905C38.7908 39.1612 41.4667 38.2333 43.854 36.7706C46.2412 35.3079 48.2831 33.3452 49.8391 31.0176C51.395 28.6901 52.4281 26.0529 52.8671 23.2878C53.306 20.5227 53.1405 17.6953 52.3819 15.0003C51.6233 12.3053 50.2897 9.80669 48.4728 7.67656C46.6559 5.54643 44.3989 3.83538 41.8573 2.66121C39.3156 1.48704 36.5497 0.877646 33.75 0.875ZM38.5938 19.2812C37.8273 19.2812 37.0782 19.054 36.4409 18.6282C35.8037 18.2024 35.307 17.5972 35.0137 16.8891C34.7204 16.1811 34.6437 15.402 34.7932 14.6503C34.9427 13.8986 35.3118 13.2081 35.8537 12.6662C36.3956 12.1243 37.0861 11.7552 37.8378 11.6057C38.5895 11.4562 39.3686 11.5329 40.0766 11.8262C40.7847 12.1195 41.3899 12.6162 41.8157 13.2534C42.2415 13.8907 42.4688 14.6398 42.4688 15.4062C42.4688 16.434 42.0605 17.4196 41.3338 18.1463C40.6071 18.873 39.6215 19.2812 38.5938 19.2812Z" fill="#E9E8E8"/>
</svg>
