<svg width="80" height="62" viewBox="0 0 80 62" fill="none" xmlns="http://www.w3.org/2000/svg">
<path d="M70.9793 11.2727H65.5194V8.45455C65.5194 6.21226 64.6565 4.06181 63.1206 2.47628C61.5847 0.890744 59.5015 0 57.3294 0H8.18992C6.01782 0 3.93468 0.890744 2.39877 2.47628C0.862864 4.06181 0 6.21226 0 8.45455V42.2727C0 44.515 0.862864 46.6655 2.39877 48.251C3.93468 49.8365 6.01782 50.7273 8.18992 50.7273H46.4095V53.5455C46.4095 55.7877 47.2724 57.9382 48.8083 59.5237C50.3442 61.1093 52.4274 62 54.5995 62H70.9793C73.1514 62 75.2346 61.1093 76.7705 59.5237C78.3064 57.9382 79.1692 55.7877 79.1692 53.5455V19.7273C79.1692 17.485 78.3064 15.3345 76.7705 13.749C75.2346 12.1635 73.1514 11.2727 70.9793 11.2727ZM73.7093 53.5455C73.7093 54.2929 73.4217 55.0097 72.9097 55.5382C72.3977 56.0667 71.7033 56.3636 70.9793 56.3636H54.5995C53.8754 56.3636 53.181 56.0667 52.6691 55.5382C52.1571 55.0097 51.8695 54.2929 51.8695 53.5455V19.7273C51.8695 18.9798 52.1571 18.263 52.6691 17.7345C53.181 17.206 53.8754 16.9091 54.5995 16.9091H70.9793C71.7033 16.9091 72.3977 17.206 72.9097 17.7345C73.4217 18.263 73.7093 18.9798 73.7093 19.7273V53.5455ZM40.9496 59.1818C40.9496 59.9292 40.662 60.6461 40.15 61.1746C39.638 61.7031 38.9437 62 38.2196 62H24.5698C23.8457 62 23.1513 61.7031 22.6394 61.1746C22.1274 60.6461 21.8398 59.9292 21.8398 59.1818C21.8398 58.4344 22.1274 57.7176 22.6394 57.1891C23.1513 56.6605 23.8457 56.3636 24.5698 56.3636H38.2196C38.9437 56.3636 39.638 56.6605 40.15 57.1891C40.662 57.7176 40.9496 58.4344 40.9496 59.1818ZM68.2493 25.3636C68.2493 26.1111 67.9617 26.8279 67.4497 27.3564C66.9378 27.8849 66.2434 28.1818 65.5194 28.1818H60.0594C59.3354 28.1818 58.641 27.8849 58.129 27.3564C57.6171 26.8279 57.3294 26.1111 57.3294 25.3636C57.3294 24.6162 57.6171 23.8994 58.129 23.3709C58.641 22.8424 59.3354 22.5455 60.0594 22.5455H65.5194C66.2434 22.5455 66.9378 22.8424 67.4497 23.3709C67.9617 23.8994 68.2493 24.6162 68.2493 25.3636Z" fill="#E9E8E8"/>
</svg>
