<svg width="48" height="48" viewBox="0 0 48 48" fill="none" xmlns="http://www.w3.org/2000/svg">
<path d="M12.9417 21.4958C12.6704 21.2248 12.4857 20.8794 12.4108 20.5034C12.3359 20.1274 12.3743 19.7376 12.521 19.3833C12.6678 19.0291 12.9164 18.7264 13.2353 18.5135C13.5542 18.3007 13.9291 18.1872 14.3125 18.1875H22.0625V2.6875C22.0625 2.17364 22.2666 1.68083 22.63 1.31748C22.9933 0.954129 23.4861 0.75 24 0.75C24.5139 0.75 25.0067 0.954129 25.37 1.31748C25.7334 1.68083 25.9375 2.17364 25.9375 2.6875V18.1875H33.6875C34.0709 18.1872 34.4458 18.3007 34.7647 18.5135C35.0836 18.7264 35.3322 19.0291 35.479 19.3833C35.6257 19.7376 35.6641 20.1274 35.5892 20.5034C35.5143 20.8794 35.3296 21.2248 35.0583 21.4958L25.3708 31.1833C25.1908 31.3634 24.9772 31.5063 24.7419 31.6038C24.5067 31.7013 24.2546 31.7515 24 31.7515C23.7454 31.7515 23.4933 31.7013 23.2581 31.6038C23.0228 31.5063 22.8092 31.3634 22.6292 31.1833L12.9417 21.4958ZM45.3125 27.875C44.7986 27.875 44.3058 28.0791 43.9425 28.4425C43.5791 28.8058 43.375 29.2986 43.375 29.8125V43.375H4.625V29.8125C4.625 29.2986 4.42087 28.8058 4.05752 28.4425C3.69417 28.0791 3.20136 27.875 2.6875 27.875C2.17364 27.875 1.68083 28.0791 1.31748 28.4425C0.954129 28.8058 0.75 29.2986 0.75 29.8125V43.375C0.75 44.4027 1.15826 45.3883 1.88496 46.115C2.61166 46.8417 3.59729 47.25 4.625 47.25H43.375C44.4027 47.25 45.3883 46.8417 46.115 46.115C46.8417 45.3883 47.25 44.4027 47.25 43.375V29.8125C47.25 29.2986 47.0459 28.8058 46.6825 28.4425C46.3192 28.0791 45.8264 27.875 45.3125 27.875Z" fill="#E9E8E8"/>
</svg>
