<svg width="54" height="52" viewBox="0 0 54 52" fill="none" xmlns="http://www.w3.org/2000/svg">
<path d="M39.1498 51.25H49.375C50.4027 51.25 51.3883 50.8417 52.115 50.115C52.8417 49.3883 53.25 48.4027 53.25 47.375V38.2566C53.2483 37.9389 53.1686 37.6264 53.0177 37.3468C52.8669 37.0672 52.6495 36.8289 52.3849 36.653C52.1203 36.4772 51.8164 36.3691 51.5002 36.3383C51.1839 36.3075 50.865 36.355 50.5714 36.4766C49.8848 36.7602 49.1491 36.9058 48.4062 36.9052C45.2021 36.9052 42.5938 34.217 42.5938 30.9159C42.5938 27.6149 45.2021 24.9266 48.4062 24.9266C49.1491 24.9261 49.8848 25.0717 50.5714 25.3553C50.8665 25.4775 51.1872 25.5248 51.505 25.4931C51.8228 25.4613 52.1278 25.3515 52.393 25.1734C52.6581 24.9953 52.875 24.7545 53.0246 24.4723C53.1741 24.19 53.2515 23.8752 53.25 23.5559V14.4375C53.25 13.4098 52.8417 12.4242 52.115 11.6975C51.3883 10.9708 50.4027 10.5625 49.375 10.5625H40.603C40.639 10.2408 40.6568 9.91741 40.6562 9.59375C40.6562 7.28139 39.7377 5.06375 38.1026 3.42866C36.4675 1.79358 34.2499 0.875 31.9375 0.875C29.6251 0.875 27.4075 1.79358 25.7724 3.42866C24.1373 5.06375 23.2188 7.28139 23.2188 9.59375C23.2182 9.91741 23.236 10.2408 23.272 10.5625H14.5C13.4723 10.5625 12.4867 10.9708 11.76 11.6975C11.0333 12.4242 10.625 13.4098 10.625 14.4375V22.2408C10.3033 22.2047 9.97991 22.1869 9.65625 22.1875C7.34389 22.1875 5.12625 23.1061 3.49116 24.7412C1.85608 26.3762 0.9375 28.5939 0.9375 30.9062C0.9375 33.2186 1.85608 35.4363 3.49116 37.0713C5.12625 38.7064 7.34389 39.625 9.65625 39.625C9.97991 39.6256 10.3033 39.6078 10.625 39.5717V47.375C10.625 48.4027 11.0333 49.3883 11.76 50.115C12.4867 50.8417 13.4723 51.25 14.5 51.25H24.7252" fill="#E9E8E8"/>
</svg>
