<svg width="60" height="62" viewBox="0 0 60 62" fill="none" xmlns="http://www.w3.org/2000/svg">
<path d="M54.5636 0H4.96032C3.64476 0 2.38309 0.522604 1.45284 1.45285C0.522604 2.38309 0 3.64476 0 4.96032V23.1802C0 50.9611 23.5057 60.178 28.2118 61.7436C29.217 62.0855 30.3069 62.0855 31.312 61.7436C36.0243 60.178 59.5239 50.9611 59.5239 23.1802V4.96032C59.5239 3.64476 59.0013 2.38309 58.071 1.45285C57.1408 0.522604 55.8791 0 54.5636 0ZM43.9175 21.596L26.5563 38.9572C26.326 39.1877 26.0525 39.3707 25.7514 39.4955C25.4503 39.6203 25.1275 39.6845 24.8016 39.6845C24.4757 39.6845 24.1529 39.6203 23.8519 39.4955C23.5508 39.3707 23.2772 39.1877 23.0469 38.9572L15.6064 31.5167C15.141 31.0513 14.8796 30.4201 14.8796 29.7619C14.8796 29.1038 15.141 28.4726 15.6064 28.0072C16.0718 27.5419 16.703 27.2804 17.3611 27.2804C18.0193 27.2804 18.6505 27.5419 19.1158 28.0072L24.8016 33.693L40.408 18.0866C40.6385 17.8561 40.912 17.6734 41.2131 17.5487C41.5142 17.4239 41.8369 17.3598 42.1627 17.3598C42.4886 17.3598 42.8113 17.4239 43.1124 17.5487C43.4135 17.6734 43.687 17.8561 43.9175 18.0866C44.1479 18.317 44.3307 18.5906 44.4554 18.8917C44.5801 19.1927 44.6443 19.5154 44.6443 19.8413C44.6443 20.1672 44.5801 20.4899 44.4554 20.7909C44.3307 21.092 44.1479 21.3656 43.9175 21.596Z" fill="#E9E8E8"/>
</svg>
