<svg width="44" height="44" viewBox="0 0 44 44" fill="none" xmlns="http://www.w3.org/2000/svg">
<path d="M1.25422 11.7454C1.07408 11.5654 0.931168 11.3517 0.833664 11.1165C0.736161 10.8813 0.685974 10.6292 0.685974 10.3746C0.685974 10.12 0.736161 9.86784 0.833664 9.63263C0.931168 9.39742 1.07408 9.18373 1.25422 9.00379L9.00422 1.25379C9.27519 0.98252 9.62055 0.797745 9.99659 0.72286C10.3726 0.647975 10.7624 0.686346 11.1167 0.833117C11.4709 0.979887 11.7736 1.22846 11.9865 1.54736C12.1993 1.86626 12.3128 2.24115 12.3125 2.62457V8.43707H41.375C41.8889 8.43707 42.3817 8.6412 42.745 9.00455C43.1084 9.36791 43.3125 9.86072 43.3125 10.3746C43.3125 10.8884 43.1084 11.3812 42.745 11.7446C42.3817 12.1079 41.8889 12.3121 41.375 12.3121H12.3125V18.1246C12.3128 18.508 12.1993 18.8829 11.9865 19.2018C11.7736 19.5207 11.4709 19.7693 11.1167 19.916C10.7624 20.0628 10.3726 20.1012 9.99659 20.0263C9.62055 19.9514 9.27519 19.7666 9.00422 19.4954L1.25422 11.7454ZM42.7458 32.2538L34.9958 24.5038C34.7248 24.2325 34.3794 24.0477 34.0034 23.9729C33.6274 23.898 33.2376 23.9363 32.8833 24.0831C32.5291 24.2299 32.2264 24.4785 32.0135 24.7974C31.8007 25.1163 31.6872 25.4911 31.6875 25.8746V31.6871H2.625C2.11114 31.6871 1.61833 31.8912 1.25498 32.2546C0.891628 32.6179 0.687499 33.1107 0.687499 33.6246C0.687499 34.1384 0.891628 34.6312 1.25498 34.9946C1.61833 35.3579 2.11114 35.5621 2.625 35.5621H31.6875V41.3746C31.6872 41.758 31.8007 42.1329 32.0135 42.4518C32.2264 42.7707 32.5291 43.0193 32.8833 43.166C33.2376 43.3128 33.6274 43.3512 34.0034 43.2763C34.3794 43.2014 34.7248 43.0166 34.9958 42.7454L42.7458 34.9954C42.9259 34.8154 43.0688 34.6017 43.1663 34.3665C43.2638 34.1313 43.314 33.8792 43.314 33.6246C43.314 33.37 43.2638 33.1178 43.1663 32.8826C43.0688 32.6474 42.9259 32.4337 42.7458 32.2538Z" fill="white"/>
</svg>
